<svg xmlns="http://www.w3.org/2000/svg" viewBox="548 95 562 479" width="400" height="400">
   <path
      d="M645 95h280l43 4 16 2 32 8 17 7 17 10 11 10 5 5 9 11 5 9 10 15 9 19 7 22 4 29v45l-4 35-6 25-3 14-8 27-10 25-8 17-10 17-9 12-11 14-11 12-14 14-14 11-15 11-13 8-16 9-22 10-25 8-15 3-24 5-24 3-32 3H548l2-17 6-26 3-17 5-23 5-26 3-13 3-17 5-22 2-13 6-27 2-13 6-26 2-13 6-27 3-17 5-22 2-13 6-26 2-13 6-27 2-12 6-28 3-17 5-22z"
      fill="#F75D1C" />
   <path
      d="M645 95h279v1l-35 1-46 4-23 4-12 3-10 2-19 6-17 6-16 6-4 2h-3v72l-1 27 10-4 19-7 24-7 33-7 21-2 13-1h32l22 2 12 4 9 6 6 8 1 3v16l-19 3-24 3-32 5-26 3-35 5-16 3-27 7-22 9-14 8-13 10-13 13-7 10-1 2h-2l-2 5-10 21-6 23-2 13v25l4 17 8 16 12 13 11 8 18 8 12 3 18 3 14 1h15l24-2 25-4 21-6 10-3 26-10 18-8h3l-2 12-3 13h136l2-12 4-23 6-30 4-22 4-20 4-23 4-19 2-13 6-30 5-28 4-22 2-15v-21l-3-19-2-8 3 3 7 11 8 17 7 22 4 29v45l-4 35-6 25-3 14-8 27-10 25-8 17-10 17-9 12-11 14-11 12-14 14-14 11-15 11-13 8-16 9-22 10-25 8-15 3-24 5-24 3-32 3H548l2-17 6-26 3-17 5-23 5-26 3-13 3-17 5-22 2-13 6-27 2-13 6-26 2-13 6-27 3-17 5-22 2-13 6-26 2-13 6-27 2-12 6-28 3-17 5-22z"
      fill="#27029C" />
   <path
      d="m926 306 1 4-6 33-4 19-2 12-11 4-16 4-15 4-18 2h-22l-12-2-11-6-4-6-1-4v-13l4-12 7-9 7-6 16-6 8-2 13-2 27-6 13-2z"
      fill="#27029C" />
</svg>