<svg xmlns="http://www.w3.org/2000/svg" viewBox="0 0 1600 1066" width="900" height="600"><path d="M0 0h1600v1066H0z" fill="none"/><path d="M645 95h280l43 4 16 2 32 8 17 7 17 10 11 10 5 5 9 11 5 9 10 15 9 19 7 22 4 29v45l-4 35-6 25-3 14-8 27-10 25-8 17-10 17-9 12-11 14-11 12-14 14-14 11-15 11-13 8-16 9-22 10-25 8-15 3-24 5-24 3-32 3H548l2-17 6-26 3-17 5-23 5-26 3-13 3-17 5-22 2-13 6-27 2-13 6-26 2-13 6-27 3-17 5-22 2-13 6-26 2-13 6-27 2-12 6-28 3-17 5-22z" fill="#F75D1C"/><path d="M645 95h279v1l-35 1-46 4-23 4-12 3-10 2-19 6-17 6-16 6-4 2h-3v72l-1 27 10-4 19-7 24-7 33-7 21-2 13-1h32l22 2 12 4 9 6 6 8 1 3v16l-19 3-24 3-32 5-26 3-35 5-16 3-27 7-22 9-14 8-13 10-13 13-7 10-1 2h-2l-2 5-10 21-6 23-2 13v25l4 17 8 16 12 13 11 8 18 8 12 3 18 3 14 1h15l24-2 25-4 21-6 10-3 26-10 18-8h3l-2 12-3 13h136l2-12 4-23 6-30 4-22 4-20 4-23 4-19 2-13 6-30 5-28 4-22 2-15v-21l-3-19-2-8 3 3 7 11 8 17 7 22 4 29v45l-4 35-6 25-3 14-8 27-10 25-8 17-10 17-9 12-11 14-11 12-14 14-14 11-15 11-13 8-16 9-22 10-25 8-15 3-24 5-24 3-32 3H548l2-17 6-26 3-17 5-23 5-26 3-13 3-17 5-22 2-13 6-27 2-13 6-26 2-13 6-27 3-17 5-22 2-13 6-26 2-13 6-27 2-12 6-28 3-17 5-22zm213 717h30l-2 10-2 6-2 9-2 6h28l-2 10-2 7h-29l-1 8-5 18 2 7 4 2h14l5-1 2 10 4-12 4-17 5-19 4-13h29l-1 8 12-6 9-3 6-1h10l9 2 8 4 3 1 19-5 21-2 20 1 12 3 8 4 5 6v15l-7 24-4 16-1 2h-30l1-4-16 4-13 2h-13l-12-3-5-3-3-5-1-10 4-9 5-4 11-5 16-3 25-2 12-2-1-5-7-3h-22l-25 4-1-12-8 13-13-4h-16l-10 3-11 6h-2l-2 10-5 20-3 11-1 1h-30v-2l-11 3-8 1h-13l-14-3-8-6-4-7v-10l8-28h-15l2-10 2-7h16l2-9 3-14zm-518-20h30l-1 6-5 18-4 16-4 14-4 16-4 14-2 10-6 20-1 6h-30v-4l-25 5-8 1h-11l-9-2-9-4-6-7-4-12v-7l3-10 6-11 8-8 8-5 13-5 13-2 15 1 15 4 7 2 1-7 6-21 4-16zm94 49 15 1 9 4 4 4v2l11-5 13-4 16-2 14 1 8 3 5 5 1 2v13l-6 21-4 16-3 10h-31l6-22 4-16 1-9-2-3-3-1h-12l-15 4-3 2-4 17-6 20-2 8h-31l6-23 4-16v-10l-4-2h-12l-13 3-4 1-3 12-5 17-4 16-1 2h-30l2-11 4-15 5-18 4-16 3-9h30l-2 5 19-5z" fill="#27029C"/><path d="m926 306 1 4-6 33-4 19-2 12-11 4-16 4-15 4-18 2h-22l-12-2-11-6-4-6-1-4v-13l4-12 7-9 7-6 16-6 8-2 13-2 27-6 13-2zm355 535 15 1 13 4 9 6 6 7 3 7v12l-5 11-7 8-8 6-11 6-15 4-8 1h-13l-12-2-11-4-9-8-5-10v-12l4-9 6-8 8-7 10-6 15-5zm-1090 0 20 1 10 2 10 4 5 6 1 2v11l-5 20-4 13-2 10-1 2h-30l1-4-6 2-23 4h-13l-9-2-7-3-4-5-1-2v-12l7-9 10-5 11-3 7-1 26-2 12-1-1-7-8-2h-21l-23 4h-3l1-16 20-5zm1218 0 16 1 10 4 5 5 1 2v13l-5 17-4 17-4 12h-30l1-7 5-17 4-16v-6l-1-4-6-1h-14l-13 3-6 3-4 14-4 16-4 14-1 1h-30l10-40 5-16 3-13h30l-1 5 19-5zm-752 0 16 1 10 4 5 5 1 2v13l-5 17-4 17-4 12h-30l1-7 5-17 4-16v-6l-1-4-6-1h-14l-13 3-6 3-4 14-4 16-4 14-1 1h-30l10-40 5-16 3-13h30l-1 5 19-5zm130 0 23 1 16 3 6 2-8 15-10-1-12-2h-26l-7 3v4l7 3 12 2 18 2 10 3 8 5 2 5-1 8-4 6-8 6-8 4-22 4h-26l-30-5 5-11 2-5 10 2 22 2h23l7-2v-6l-3-2-20-2-16-3-12-4-5-6v-12l6-8 6-4 17-5zm356 0 16 1 14 4 8 4-5 5-8 7-5 2-7-3-5-1h-12l-12 3-8 6-3 3-2 5v9l2 6 5 2 3 1h21l12-6h3l11 8-1 3-14 8-3 2-13 3-8 1h-13l-14-3-7-3-8-6-4-6-1-3v-19l7-11 7-7 13-8 17-5zm-436 2h30l-2 9-7 27-4 13-2 10-3 10h-31l7-28 5-16 3-14 3-10zm-160 0h30l-2 9-7 27-4 13-2 10-3 10h-31l7-28 5-16 3-14 3-10zm646 0h30l-2 9-4 17-5 17-4 16-3 10h-31l6-21 2-10 6-21 4-16z" fill="#27029C"/><path d="M289 860h14l14 3 3 1-1 8-4 16-2 3-13 4-5 1h-16l-6-4-4-5-1-7 3-9 4-5 6-4z" fill="#FCFCFC"/><path d="M515 700h32l8 4 1 2v10l-6 7-5 3-4 2 6 8 6 13h-9l-9-17-3-3-4-1h-12l-1 10-3 11h-7l4-24 5-23zm268 0h12l3 20 3 18 1 2 6-12 16-28h11l1 2-7 32-2 13-1 2h-7l2-15 5-24-6 10-15 27-2 2h-7l-4-21-3-18-8 37-1 2h-6l-1-2 6-27 3-17zm-446 0h29l8 3 3 4v9l-3 6h-2l-2 4-4 2-6 1h-22l-1 9-3 11h-7l4-20 3-17z" fill="#F85E1C"/><path d="M1275 859h10l8 4 3 5 1 7-3 9-7 8-7 4h-18l-7-6-2-4v-7l3-8 6-7 9-4z" fill="#FCFCFC"/><path d="M1181 705h8l7 3 4 4 1 3v10l-3 7-7 8-5 3-4 1h-9l-7-3-4-5-1-2v-9l3-10 8-7zm-1025 1h19l7 3 3 5v11l-3 7-4 6-10 5h-19l-1-4 7-32zm1174 0h19l7 3 3 5v11l-4 10-7 6-6 2h-19l1-13 5-23z" fill="#FDFDFD"/><path d="M980 700h8l8 14 6 11 7 12 3-16 5-21h7l-2 12-6 31-2 6h-8l-9-16-11-19v-2h-2l-1 8-5 27-1 2h-7l3-19 6-28zm-92 0h41l-1 6-34 1-2 13h30l1 5-2 2h-31l-3 16h34l-1 6h-42l4-20 4-22zm-643 0h41l-1 6-33 1-3 13h30l1 5-1 2h-32l-2 15 33 1-1 6h-41l1-10 6-28zm-96 0h29l9 4 4 5 1 3v13l-5 12-7 7-8 4-5 1h-27l1-10 6-28zm7 6-2 5-6 28 1 4h19l10-5 6-9 1-4v-11l-4-6-6-2zm1264-6h40v5l-1 1-33 1-3 13h31l-1 7h-32l-2 16h33v5l-1 1h-41l4-24 5-23zm-96 0h28l7 3 5 4 2 4v14l-3 9-9 10-8 4-5 1h-27l4-24 5-23zm6 6-2 5-5 26v6h19l7-3 6-5 4-10v-11l-4-6-6-2zm-623-6h6l3 10 7 26 2 9v4h-7l-2-7-1-7h-24l-9 14h-7l2-5 10-15 7-10 9-14zm-268 0h6l5 15 5 21 3 10v3h-7l-4-14-24-1-2 5-7 10h-7l2-5 10-14 12-18zm742-1h11l7 3 6 5 3 6v12l-4 10-7 8-12 6-4 1h-10l-8-3-6-5-3-7v-10l3-10 9-10 10-5zm0 6-9 3-8 7-3 10v9l4 6 5 3 3 1h9l7-3 8-7 3-5 1-4v-10l-3-5-5-4-4-1z" fill="#F85E1C"/><path d="M1204 800h30l1 2-6 21-1 1h-30l1-7zm-486 0h30l-2 12-3 11-1 1h-30l1-8 4-15zm-160 0h30l-2 12-3 11-1 1h-30l1-8 4-15zm740 8h28l-5 4-15 11-8 6-7 5h-23l5-5 11-9 10-9z" fill="#27029C"/><path d="M1071 700h44v6l-19 1-8 40-1 2h-7l5-28 3-14-18-1zm-466 0h45l-1 6-19 1-4 22-4 18-1 2h-7l4-20 4-22-17-1z" fill="#F85E1C"/><path d="m202 879 1 3-4 14-13 3h-17l-5-3-1-5 4-5 11-3z" fill="#FCFCFC"/><path d="m1048 879 1 3-4 14-13 3h-17l-4-2-1-6 4-5 10-3zM343 706h21l5 3 1 7-4 5-6 2h-20v-7l2-9zm178 0h22l5 2 1 1v7l-4 4-5 1h-22l1-9zm-81 1h2l3 14v7h-17l2-5 7-11zm268 0 2 4 3 12-1 5h-16l2-5 8-14z" fill="#FDFDFD"/></svg>