<svg xmlns="http://www.w3.org/2000/svg" width="992" height="715" viewBox="0 0 992 715" fill="none">
   <g clip-path="url(#a)">
      <path fill="#4B5563" d="M0 0h992v715H0z" />
      <g filter="url(#b)">
         <path fill="#374151" d="M0 0h992v36H0z" />
         <path
            d="M15.5 22.167v-8.334m0 8.334a1.667 1.667 0 0 1-1.667 1.666h-1.666a1.667 1.667 0 0 1-1.667-1.666v-8.334a1.667 1.667 0 0 1 1.667-1.666h1.666a1.666 1.666 0 0 1 1.667 1.666m0 8.334a1.667 1.667 0 0 0 1.667 1.666h1.666a1.667 1.667 0 0 0 1.667-1.666m-5-8.334a1.667 1.667 0 0 1 1.667-1.666h1.666a1.666 1.666 0 0 1 1.667 1.666m0 8.334v-8.334m0 8.334a1.667 1.667 0 0 0 1.667 1.666h1.666a1.667 1.667 0 0 0 1.667-1.666v-8.334a1.667 1.667 0 0 0-1.667-1.666h-1.666a1.666 1.666 0 0 0-1.667 1.666"
            stroke="#9CA3AF" stroke-width="2" stroke-linecap="round" stroke-linejoin="round" />
         <path
            d="M235.398 9.764H37.745A2.745 2.745 0 0 0 35 12.51v10.98a2.745 2.745 0 0 0 2.745 2.746h197.653a2.745 2.745 0 0 0 2.745-2.746V12.51a2.745 2.745 0 0 0-2.745-2.746"
            fill="#6B7280" />
         <path
            d="m934.9 19.159-.147.146-.424.424a.1.1 0 0 0 .071.171zm0 0v-.207m0 .207v-.207m0 0V16.8a3.102 3.102 0 0 1 5.292-2.192c.581.581.908 1.37.908 2.192v2.359m-6.2-.207 6.2.207m0 0 .146.146m-.146-.146.146.146m0 0 .425.424a.1.1 0 0 1-.071.171zm.354.595h-7.2zm-3.6 2.4a1.3 1.3 0 0 1-1.2-.8h2.4a1.3 1.3 0 0 1-1.2.8Z"
            fill="#9CA3AF" stroke="#9CA3AF" />
         <path
            d="M955 13.8a1.2 1.2 0 0 0-1.2 1.2v1.2a1.197 1.197 0 0 0 1.2 1.2h1.2a1.2 1.2 0 0 0 1.2-1.2V15a1.2 1.2 0 0 0-1.2-1.2zm0 4.8a1.2 1.2 0 0 0-1.2 1.2V21a1.197 1.197 0 0 0 1.2 1.2h1.2a1.2 1.2 0 0 0 1.2-1.2v-1.2a1.2 1.2 0 0 0-1.2-1.2zm3.6-3.6a1.2 1.2 0 0 1 1.2-1.2h1.2a1.2 1.2 0 0 1 1.2 1.2v1.2a1.2 1.2 0 0 1-1.2 1.2h-1.2a1.2 1.2 0 0 1-1.2-1.2zm0 4.8a1.2 1.2 0 0 1 1.2-1.2h1.2a1.2 1.2 0 0 1 1.2 1.2V21a1.2 1.2 0 0 1-1.2 1.2h-1.2a1.2 1.2 0 0 1-1.2-1.2z"
            fill="#9CA3AF" />
         <path fill-rule="evenodd" clip-rule="evenodd"
            d="M982.8 18a4.8 4.8 0 1 1-9.602-.001A4.8 4.8 0 0 1 982.8 18m-3.6-1.8a1.2 1.2 0 1 1-2.4.001 1.2 1.2 0 0 1 2.4-.001m-1.2 2.4a3 3 0 0 0-2.728 1.75 3.6 3.6 0 0 0 4.229.923 3.6 3.6 0 0 0 1.227-.923A3 3 0 0 0 978 18.6"
            fill="#9CA3AF" />
      </g>
      <path fill="#1F2A37" d="M0 37h992v678H0z" />
      <path fill="#374151" d="M0 37h194v678H0z" />
      <rect x="20" y="57" width="8" height="8" rx="4" fill="#9CA3AF" />
      <rect x="36" y="57" width="88" height="8" rx="2" fill="#9CA3AF" />
      <rect x="20" y="85" width="8" height="8" rx="4" fill="#9CA3AF" />
      <rect x="36" y="85" width="132" height="8" rx="2" fill="#9CA3AF" />
      <rect x="20" y="113" width="8" height="8" rx="4" fill="#9CA3AF" />
      <rect x="36" y="113" width="129" height="8" rx="2" fill="#9CA3AF" />
      <rect x="20" y="141" width="8" height="8" rx="4" fill="#9CA3AF" />
      <rect x="36" y="141" width="103" height="8" rx="2" fill="#9CA3AF" />
      <rect x="20" y="169" width="8" height="8" rx="4" fill="#9CA3AF" />
      <rect x="36" y="169" width="130" height="8" rx="2" fill="#9CA3AF" />
      <rect x="20" y="197" width="8" height="8" rx="4" fill="#9CA3AF" />
      <rect x="36" y="197" width="92" height="8" rx="2" fill="#9CA3AF" />
      <rect x="20" y="225" width="8" height="8" rx="4" fill="#9CA3AF" />
      <rect x="36" y="225" width="136" height="8" rx="2" fill="#9CA3AF" />
      <rect x="77.5" y="694" width="5" height="5" rx="2.5" fill="#9CA3AF" />
      <rect x="94.5" y="694" width="5" height="5" rx="2.5" fill="#9CA3AF" />
      <rect x="111.5" y="694" width="5" height="5" rx="2.5" fill="#9CA3AF" />
      <rect x="214" y="57" width="758" height="243.528" rx="4" fill="#374151" />
      <rect x="230" y="73" width="73" height="7" rx="2" fill="#9CA3AF" />
      <rect x="230" y="84" width="39" height="5" rx="2" fill="#6B7280" />
      <path
         d="M230.988 191.074c41.748-5.276 38.964 26.064 93.932 30.637 54.967 4.572 70.274-27.434 95.323-36.579s36.181-50.816 77.928-48.002 62.621 31.007 97.411 34.524 41.747 26.843 74.449 44.077c32.702 17.235 62.621 19.345 103.672 15.828 41.052-3.518 52.185-39.078 71.667-40.485s36.877 15.551 53.575 19.42c16.699 3.869 21.57 21.065 57.055 21.065"
         stroke="#9CA3AF" stroke-width="3" stroke-linecap="round" stroke-linejoin="round" />
      <path
         d="M230 240.994c31.932-2.889 58.191-20.508 96.292-23.47 20.307-1.578 36.576 1.494 54.727 6.268 18.151 4.773 14.598 6.834 55.42 10.514 33.687 3.037 42.499-29.705 75.509-28.447 33.011 1.258 48.278-38.108 83.13-34.822 34.852 3.287 41.815-5.21 74.576 10.892s63.028-21.43 104.153-24.716 51.836 31.592 71.353 30.277 37.09 23.539 53.818 27.154c16.729 3.614 21.473-9.517 57.022-9.517"
         stroke="#6B7280" stroke-width="3" stroke-linecap="round" stroke-linejoin="round" />
      <rect x="510" y="274.028" width="5" height="5" rx="2" fill="#6B7280" />
      <rect x="519" y="274.028" width="22" height="5" rx="2" fill="#6B7280" />
      <rect x="567" y="274.028" width="5" height="5" rx="2" fill="#6B7280" />
      <rect x="576" y="274.028" width="39" height="5" rx="2" fill="#6B7280" />
      <rect x="641" y="274.028" width="5" height="5" rx="2" fill="#6B7280" />
      <rect x="650" y="274.028" width="26" height="5" rx="2" fill="#6B7280" />
      <rect x="214" y="320.528" width="239.333" height="93" rx="4" fill="#374151" />
      <rect x="224" y="330.528" width="40" height="4" rx="1" fill="#9CA3AF" />
      <rect x="224" y="351.528" width="152" height="4" rx="1" fill="#6B7280" />
      <rect x="224" y="360.528" width="81" height="4" rx="1" fill="#6B7280" />
      <rect x="224" y="381.528" width="43" height="14" rx="2" fill="#1A56DB" />
      <rect x="231" y="387.028" width="29" height="3" rx="1" fill="#fff" />
      <rect x="274" y="381.528" width="43" height="14" rx="2" fill="#4B5563" />
      <rect x="281" y="387.028" width="29" height="3" rx="1" fill="#9CA3AF" />
      <rect x="473.333" y="320.528" width="239.333" height="93" rx="4" fill="#374151" />
      <rect x="483.333" y="330.528" width="40" height="4" rx="2" fill="#9CA3AF" />
      <rect x="633.333" y="331.528" width="14" height="2" rx="1" fill="#6B7280" />
      <rect x="483.333" y="351.528" width="30.5" height="4" rx="1" fill="#6B7280" />
      <rect x="527.833" y="351.528" width="30.5" height="4" rx="1" fill="#6B7280" />
      <rect x="572.333" y="351.528" width="30.5" height="4" rx="1" fill="#6B7280" />
      <rect x="616.833" y="351.528" width="30.5" height="4" rx="1" fill="#6B7280" />
      <rect x="483.333" y="363.528" width="30.5" height="4" rx="1" fill="#6B7280" />
      <rect x="527.833" y="363.528" width="30.5" height="4" rx="1" fill="#6B7280" />
      <rect x="572.333" y="363.528" width="30.5" height="4" rx="1" fill="#6B7280" />
      <rect x="616.833" y="363.528" width="30.5" height="4" rx="1" fill="#6B7280" />
      <rect x="483.333" y="375.528" width="30.5" height="4" rx="1" fill="#6B7280" />
      <rect x="527.833" y="375.528" width="30.5" height="4" rx="1" fill="#6B7280" />
      <rect x="572.333" y="375.528" width="30.5" height="4" rx="1" fill="#6B7280" />
      <rect x="616.833" y="375.528" width="30.5" height="4" rx="1" fill="#6B7280" />
      <rect x="483.333" y="387.528" width="30.5" height="4" rx="1" fill="#6B7280" />
      <rect x="527.833" y="387.528" width="30.5" height="4" rx="1" fill="#6B7280" />
      <rect x="572.333" y="387.528" width="30.5" height="4" rx="1" fill="#6B7280" />
      <rect x="616.833" y="387.528" width="30.5" height="4" rx="1" fill="#6B7280" />
      <rect x="483.333" y="399.528" width="30.5" height="4" rx="1" fill="#6B7280" />
      <rect x="527.833" y="399.528" width="30.5" height="4" rx="1" fill="#6B7280" />
      <rect x="572.333" y="399.528" width="30.5" height="4" rx="1" fill="#6B7280" />
      <rect x="616.833" y="399.528" width="30.5" height="4" rx="1" fill="#6B7280" />
      <rect x="732.667" y="320.528" width="239.333" height="92.675" rx="4" fill="#374151" />
      <rect x="742.667" y="330.528" width="40" height="4" rx="2" fill="#9CA3AF" />
      <rect x="958" y="330.528" width="4" height="4" rx="2" fill="#9CA3AF" />
      <rect x="742.667" y="348.528" width="113" height="5" rx="2.5" fill="#6B7280" />
      <rect x="742.667" y="358.528" width="92" height="5" rx="2.5" fill="#6B7280" />
      <rect x="742.667" y="368.528" width="109" height="5" rx="2.5" fill="#6B7280" />
      <rect x="742.667" y="378.528" width="64" height="5" rx="2.5" fill="#6B7280" />
      <rect x="742.667" y="398.366" width="4" height="4" rx="2" fill="#9CA3AF" />
      <rect x="746.667" y="398.366" width="4" height="4" rx="2" fill="#9CA3AF" />
      <rect x="750.667" y="398.366" width="4" height="4" rx="2" fill="#9CA3AF" />
      <rect x="932.482" y="397.528" width="29.517" height="5.675" rx="2" fill="#6B7280" />
      <g clip-path="url(#c)">
         <rect x="214" y="433.528" width="495" height="251" rx="4" fill="#374151" />
         <g clip-path="url(#d)">
            <rect x="230" y="449.528" width="73" height="7" rx="2" fill="#9CA3AF" />
            <rect x="230" y="460.528" width="39" height="5" rx="2" fill="#6B7280" />
         </g>
         <g opacity=".3" fill-rule="evenodd" clip-rule="evenodd">
            <path
               d="M214 496.121s34.347 65.619 70.714 65.619c34.347 0 34.347-27.838 70.715-27.838 34.347 0 34.347 45.735 70.714 45.735 34.347 0 34.347-89.482 70.714-89.482 34.347 0 34.347 137.205 70.714 137.205 34.347 0 34.347-55.677 70.715-55.677 34.347 0 70.714 47.723 70.714 47.723v65.122H214z"
               fill="#6B7280" />
            <path
               d="M214 496.121s34.347 65.619 70.714 65.619c34.347 0 34.347-27.838 70.715-27.838 34.347 0 34.347 45.735 70.714 45.735 34.347 0 34.347-89.482 70.714-89.482 34.347 0 34.347 137.205 70.714 137.205 34.347 0 34.347-55.677 70.715-55.677 34.347 0 70.714 47.723 70.714 47.723v65.122H214z"
               fill="url(#e)" />
         </g>
         <path fill-rule="evenodd" clip-rule="evenodd"
            d="M496.858 487.528c16.411 0 23.614 15.99 36.425 65.13l2.576 9.9c11.795 44.737 19.614 61.557 31.713 61.557 11.851 0 18.543-5.922 29.901-23.473l1.803-2.815c13.642-21.387 22.072-29.139 39.01-29.139q2.957.002 5.982.419c14.492 1.993 29.562 10.794 44.665 24.196 5.95 5.278 11.496 10.924 16.498 16.57 1.313 1.482 2.245 2.884 3.334 4.189v8.686l-4.113-4.52a174 174 0 0 0-4.52-5.3c-4.863-5.49-10.255-10.978-16.018-16.092-14.207-12.606-28.245-20.805-40.941-22.551a36 36 0 0 0-4.887-.343c-12.683 0-19.853 5.926-31.122 23.05l-4.999 7.739c-11.901 18.09-19.739 24.637-34.593 24.637-17.606 0-25.386-17.016-38.676-67.969l-3.145-12.052c-10.949-41.146-18.187-56.565-28.893-56.565-12.66 0-20.183 10.728-32.238 40.769l-3.056 7.652c-12.24 30.222-19.807 40.657-35.421 40.657-15.709 0-24.167-5.67-36.447-20.924l-5.517-7.003c-10.582-13.157-17.152-17.602-28.75-17.602-13.564 0-20.707 3.025-32.306 11.92l-2.296 1.787c-13.127 10.289-21.09 14.006-36.112 14.006-17.408 0-34.741-12.736-51.727-33.859-5.819-7.236-11.18-14.974-15.967-22.712l-1.917-3.153q-.456-.762-.888-1.499v-4.647l.097-7.843 2.686 4.737 1.511 2.742 1.594 2.765c.845 1.44 1.762 2.962 2.746 4.553 4.684 7.573 9.93 15.144 15.602 22.198 15.846 19.705 31.85 31.465 46.263 31.465 12.378 0 18.986-2.844 30.097-11.375l2.233-1.739c13.63-10.683 22.147-14.599 38.384-14.599 15.027 0 22.95 5.715 35.384 21.465l1.975 2.531c12.514 16.114 19.688 21.533 33.355 21.533 11.191 0 18.141-9.713 29.236-37.055l3.813-9.527c12.734-31.418 20.876-42.497 37.666-42.497"
            fill="#9CA3AF" />
      </g>
      <g clip-path="url(#f)">
         <rect x="729" y="433.528" width="243" height="251" rx="4" fill="#374151" />
         <rect x="745" y="449.528" width="73" height="7" rx="2" fill="#9CA3AF" />
         <rect x="745" y="460.528" width="39" height="5" rx="2" fill="#6B7280" />
         <path d="M748 684.528a3 3 0 0 1-3-3v-191a3 3 0 0 1 3-3h8a3 3 0 0 1 3 3v191a3 3 0 0 1-3 3z"
            fill="#9CA3AF" />
         <path d="M767 684.528a3 3 0 0 1-3-3v-132a3 3 0 0 1 3-3h8a3 3 0 0 1 3 3v132a3 3 0 0 1-3 3z"
            fill="#6B7280" />
         <path d="M793 684.528a3 3 0 0 1-3-3v-81a3 3 0 0 1 3-3h8a3 3 0 0 1 3 3v81a3 3 0 0 1-3 3z"
            fill="#9CA3AF" />
         <path d="M812 684.528a3 3 0 0 1-3-3v-153a3 3 0 0 1 3-3h8a3 3 0 0 1 3 3v153a3 3 0 0 1-3 3z"
            fill="#6B7280" />
         <path d="M838 684.528a3 3 0 0 1-3-3v-164a3 3 0 0 1 3-3h8a3 3 0 0 1 3 3v164a3 3 0 0 1-3 3z"
            fill="#9CA3AF" />
         <path d="M857 684.528a3 3 0 0 1-3-3v-185a3 3 0 0 1 3-3h8a3 3 0 0 1 3 3v185a3 3 0 0 1-3 3z"
            fill="#6B7280" />
         <path d="M883 684.528a3 3 0 0 1-3-3v-164a3 3 0 0 1 3-3h8a3 3 0 0 1 3 3v164a3 3 0 0 1-3 3z"
            fill="#9CA3AF" />
         <path d="M902 684.528a3 3 0 0 1-3-3v-79a3 3 0 0 1 3-3h8a3 3 0 0 1 3 3v79a3 3 0 0 1-3 3z"
            fill="#6B7280" />
         <path d="M928 684.528a3 3 0 0 1-3-3v-146a3 3 0 0 1 3-3h8a3 3 0 0 1 3 3v146a3 3 0 0 1-3 3z"
            fill="#9CA3AF" />
         <path d="M947 684.528a3 3 0 0 1-3-3v-110a3 3 0 0 1 3-3h8a3 3 0 0 1 3 3v110a3 3 0 0 1-3 3z"
            fill="#6B7280" />
      </g>
   </g>
   <defs>
      <clipPath id="a">
         <path fill="#fff" d="M0 0h992v715H0z" />
      </clipPath>
      <clipPath id="c">
         <rect x="214" y="433.528" width="495" height="251" rx="4" fill="#fff" />
      </clipPath>
      <clipPath id="d">
         <path fill="#fff" d="M214 449.528h495v16H214z" />
      </clipPath>
      <clipPath id="f">
         <rect x="729" y="433.528" width="243" height="251" rx="4" fill="#fff" />
      </clipPath>
      <linearGradient id="e" x1="461.5" y1="490.155" x2="461.5" y2="684.528"
         gradientUnits="userSpaceOnUse">
         <stop stop-color="#fff" stop-opacity="0" />
         <stop offset="1" stop-color="#374151" />
      </linearGradient>
      <filter id="b" x="-3" y="-2" width="998" height="42" filterUnits="userSpaceOnUse"
         color-interpolation-filters="sRGB">
         <feFlood flood-opacity="0" result="BackgroundImageFix" />
         <feColorMatrix in="SourceAlpha" values="0 0 0 0 0 0 0 0 0 0 0 0 0 0 0 0 0 0 127 0"
            result="hardAlpha" />
         <feOffset dy="1" />
         <feGaussianBlur stdDeviation="1.5" />
         <feColorMatrix values="0 0 0 0 0 0 0 0 0 0 0 0 0 0 0 0 0 0 0.1 0" />
         <feBlend in2="BackgroundImageFix" result="effect1_dropShadow_2881_4243" />
         <feColorMatrix in="SourceAlpha" values="0 0 0 0 0 0 0 0 0 0 0 0 0 0 0 0 0 0 127 0"
            result="hardAlpha" />
         <feOffset dy="1" />
         <feGaussianBlur stdDeviation="1" />
         <feColorMatrix values="0 0 0 0 0 0 0 0 0 0 0 0 0 0 0 0 0 0 0.06 0" />
         <feBlend in2="effect1_dropShadow_2881_4243" result="effect2_dropShadow_2881_4243" />
         <feBlend in="SourceGraphic" in2="effect2_dropShadow_2881_4243" result="shape" />
      </filter>
   </defs>
</svg>