<svg xmlns="http://www.w3.org/2000/svg" width="1508" height="2048"
   style="shape-rendering:geometricPrecision;text-rendering:geometricPrecision;image-rendering:optimizeQuality;fill-rule:evenodd;clip-rule:evenodd">
   <path style="opacity:.882" fill="#f9d106" d="M648.5-.5h22v18h19v23h-19v19h-22v-19h-19v-23h19z" />
   <path style="opacity:.985" fill="#fcd402"
      d="M712.5-.5h86q.25 11.51-.5 23a120 120 0 0 0-17.5-2v80q39.504.255 79 1v-19h22v86h-22q.912-11.172-2-21.5-38.5-.853-77-1.5a1682 1682 0 0 0 1 82 202 202 0 0 0 17 2v20a511 511 0 0 0 42 1v-19h-19v-22h19v-19h23v19h19v22h-19v19q75.56 2.724 161 8.5 147.315 9.472 291 43 64.425 14.805 123 45 42.15 25.4 69 66.5v205c-32.14 30.554-69.8 51.721-113 63.5a2562 2562 0 0 0-127 36 7570 7570 0 0 1 101 59q17.1 15.696 18 39a24996 24996 0 0 1-2.5 195.5c-3.89 11.88-10.22 22.21-19 31a505 505 0 0 0-55.5 51.5c58.93 36.6 117.6 73.6 176 111a3347 3347 0 0 1-116 37.5c-.52 44.33-1.19 88.67-2 133a6740 6740 0 0 1-112.5-75c-.33 183.33-.67 366.67-1 550-10.92 48.85-36.75 87.35-77.5 115.5-14.67 8.44-30.33 14.11-47 17-86.33 1.09-172.663 1.76-259 2-35.218 8.28-66.552 23.94-94 47a282 282 0 0 0-13 15.5h-10q-45.11-56.82-118-64.5c-91.667-.33-183.333-.67-275-1q-51.993-11.355-88.5-49.5c-17.094-20.54-26.761-44.2-29-71q.755-279 0-558c-33.333 24.67-66.667 49.33-100 74-.167-42.34-.667-84.67-1.5-127a24374 24374 0 0 0-114-45.5 24897 24897 0 0 1 158-111.5 6379 6379 0 0 0-69.5-64q-1-108 0-216 10.753-18.736 27.5-32.5a2156 2156 0 0 1 93-55 21255 21255 0 0 0-218-82q-14.333-8.06-19-23.5v-210q17.71-24.959 43-42.5 38.42-25.711 82-42a989.3 989.3 0 0 1 164-43 2477 2477 0 0 1 359-32 71 71 0 0 0 1-16.5h-19v-22h19v-19h22v19h19v22h-19v16a685 685 0 0 0 42-1v-20a181 181 0 0 0 18-2 1682 1682 0 0 0 1-82l-78 1.5q-2.912 10.328-2 21.5h-22v-86h22v19a6131 6131 0 0 1 80-1v-80a188 188 0 0 0-18.5 2q-.75-11.49-.5-23m31 452a3866 3866 0 0 1 346 11.5 1026 1026 0 0 1 163 26 257 257 0 0 1 34 12 8816 8816 0 0 1-207 70q-23.19 7.69-31.5 30.5c-.81 67.673-.48 135.34 1 203 2.24 11.469 6.9 21.802 14 31q2.16 4.461 3 9a31128 31128 0 0 0-225.5-94 43.2 43.2 0 0 1-.5-16q27.173-19.697 37-52a459 459 0 0 1 27-24q.75-26.495.5-53-6.916-.807-13-4a559 559 0 0 0-22.5-50q-25.38-41.382-69.5-61.5-91.684-24.282-152.5 48.5-16.232 22.478-21 50l-21 21a579 579 0 0 0-2 45 745 745 0 0 0 32 33q10.675 30.198 36.5 49.5a99 99 0 0 0-1.5 13.5 18974 18974 0 0 1-228.5 88 52 52 0 0 0-1 7 18.5 18.5 0 0 1-6-.5 157 157 0 0 0 5.5-10.5q13.537-10.546 19-27 .75-106 .5-212a38310 38310 0 0 1-248-94.5 714.3 714.3 0 0 1 131-27 2632 2632 0 0 1 210-17 7389 7389 0 0 1 191-5.5" />
   <path style="opacity:.882" fill="#f9d105" d="M832.5 1.5h22v19h19v23h-19v18h-22v-18h-19v-23h19z" />
   <path style="opacity:1" fill="#260f54"
      d="M653.5 4.5h11v19h19v11q-9.285-.485-18 1-1.485 8.715-1 18h-11v-19h-19v-11h19z" />
   <path style="opacity:1" fill="#5e423e"
      d="M793.5 5.5h-75q-.853 5.745 2 10-1.063 1.356-3 1v-12q38.258-.497 76 1" />
   <path style="opacity:1" fill="#271054"
      d="M793.5 5.5v10a114 114 0 0 1-18-1v91q44.527-.021 89 2v-19h11v75h-11v-22q-44.499-.606-89-1v93q9.067-.295 18 1v11h-75v-11a1052 1052 0 0 0 18-2 2164 2164 0 0 0 1-93q-6.798-.477-13 1-39.003.314-78 1v22h-12v-76h12v19q45.009.093 90-1a2072 2072 0 0 0 1-91q-4.82-.465-9 1h-8q-2.853-4.255-2-10z" />
   <path style="opacity:1" fill="#705239" d="M849.5 7.5h-11q.485 9.285-1 18v-19q6.303-.475 12 1" />
   <path style="opacity:1" fill="#271054"
      d="M849.5 7.5v19h19v11h-19v19h-12v-19h-18v-11q9.285.485 18-1 1.485-8.715 1-18z" />
   <path style="opacity:1" fill="#90702c" d="M728.5 15.5q4.18-1.465 9-1 .497 45.757-1 91v-90z" />
   <path style="opacity:1" fill="#bb991a" d="M653.5 4.5v19h-19q8.715-1.485 18-1-.485-9.285 1-18" />
   <path style="opacity:1" fill="#a07f28"
      d="M664.5 4.5q1.485 8.715 1 18h19q.475 6.303-1 12v-11h-19z" />
   <path style="opacity:1" fill="#816331" d="M837.5 25.5q-8.715 1.485-18 1v11q-1.475-5.697-1-12z" />
   <path style="opacity:1" fill="#88692f" d="M665.5 35.5v19q-6.303.475-12-1h11q-.485-9.285 1-18" />
   <path style="opacity:1" fill="#422949" d="M864.5 88.5q5.697-1.475 12-1 .497 38.258-1 76v-75z" />
   <path style="opacity:1" fill="#8a6b2f" d="M724.5 140.5q6.202-1.477 13-1 .497 46.756-1 93v-92z" />
   <path style="opacity:1" fill="#281054" d="M846.5 195.5h11v19h19v12h-19v19h-11v-19h-19v-12h19z" />
   <path style="opacity:1" fill="#270f54"
      d="M683.5 217.5v11q-9.285-.485-18 1-1.485 8.715-1 18h-11v-18h-19v-12h19v-19h11v19z" />
   <path style="opacity:1" fill="#66493d" d="M683.5 217.5q1.475 5.697 1 12h-19q8.715-1.485 18-1z" />
   <path style="opacity:1" fill="#795b35" d="M665.5 229.5v19q-6.303.475-12-1h11q-.485-9.285 1-18" />
   <path style="opacity:1" fill="#513743"
      d="M718.5 234.5v11h75a1444 1444 0 0 1-76 1q-.475-6.303 1-12" />
   <path style="opacity:1" fill="#271055"
      d="M46.5 457.5q.814-.09 1-1a170 170 0 0 0-26-1 692 692 0 0 1 24-18.5l-22-1a192 192 0 0 1 16-17 70 70 0 0 0-16 1.5q-5.142.54-1.5-3A486 486 0 0 1 43.5 387q35.415-29.476 79-46a878 878 0 0 1 171-47 2306 2306 0 0 1 324-31 3846 3846 0 0 1 406 9 1814.4 1814.4 0 0 1 265 39q68.25 15.418 132 44a332.4 332.4 0 0 1 47 28c4.35 4.07 8.52 8.236 12.5 12.5q1.005 1.5 0 3a96 96 0 0 0-8.5 10 422 422 0 0 0 17 17.5l-18 7a309 309 0 0 1 19 14 181 181 0 0 0-20 8 395 395 0 0 0 17 16.5 222 222 0 0 1-18 8.5 353 353 0 0 1 21 14q-11.955 4.987-24 10l24 18c-8.36 2.112-16.7 4.112-25 6a114.6 114.6 0 0 1 6 16c-1.79 2.164-3.96 3.998-6.5 5.5-15.6-12.56-32.77-22.726-51.5-30.5a837 837 0 0 0-142-45 2135 2135 0 0 0-321-41 5512 5512 0 0 0-312-4 2298 2298 0 0 0-331 31q-98.543 16.509-191 54-36.85 15.651-67 41.5a16.6 16.6 0 0 1-6-5q4.9-11.55 11-22.5a773 773 0 0 0-26 2 358 358 0 0 1 20-25l-26 2 25-27q-13.106-.486-26 1a852 852 0 0 1 26-23.5" />
   <path style="opacity:1" fill="#fafafb"
      d="M697.5 296.5a250 250 0 0 1 36 1.5q19.303 12.842 19.5 36.5 4.17 27.633-9 52-6.19 8.472-16.5 10.5-14.5 1-29 0a3.65 3.65 0 0 1-1-1.5q4-.808 6.5-4a961 961 0 0 0 1-85q-.571-6.07-6.5-7.5-1.128-1.006-1-2.5" />
   <path style="opacity:1" fill="#f6f5f8"
      d="M760.5 296.5h46q.25 12.51-.5 25a10.3 10.3 0 0 1-1.5 4q-1.01-12.262-9-21.5-7.308-2.082-15-1.5v40q4.928.346 7.5-4a131 131 0 0 0 4.5-19 338.6 338.6 0 0 1 0 52q-.228-11.682-7-21a9.1 9.1 0 0 0-5-1 283 283 0 0 0 1.5 40q12.068 4.986 20-6a60 60 0 0 0 6-17 427 427 0 0 1-.5 31 406 406 0 0 1-49-1.5 36 36 0 0 0 6.5-3.5q2.048-44.985 1-90a30.1 30.1 0 0 0-7.5-4.5q1.374-.417 2-1.5" />
   <path style="opacity:1" fill="#f8f7f9"
      d="M865.5 297.5a32.5 32.5 0 0 1 8 .5 107 107 0 0 1 15.5 6.5q3.606-1.17 4.5-5 1.444 17.525-1 35-2.36-14.211-10.5-26-15.702-10.688-23 7-10.567 31.908-4 65 1.507 10.283 9.5 16.5 6.914 1.61 12.5-2.5 1-15 0-30a51 51 0 0 0-5.5-4q14.13-2.221 28 1-4.957 2.208-7.5 7a375 375 0 0 1-2 28q-29.379 19.006-46-11-7.32-14.636-5.5-31-1.827-25.26 12.5-46 5.926-7.551 14.5-11m-233 3q24.82-2.908 34.5 20a92 92 0 0 1 5 18 289 289 0 0 1 0 34q-2.757 13.263-11.5 23.5a45.9 45.9 0 0 1-14 6 113.2 113.2 0 0 1-26-.5q3.584-1.653 5.5-5l.5-14a3342 3342 0 0 1-3.5-65 46 46 0 0 0-2-10 84 84 0 0 1-6.5-4 107.3 107.3 0 0 1 18-3" />
   <path style="opacity:1" fill="#291257"
      d="M723.5 302.5q10.875 4.19 12.5 16 5.403 30.615-1 61-1.99 9.738-11.5 12-4.94-.954-4-6v-83z" />
   <path style="opacity:1" fill="#f3f2f6"
      d="M903.5 301.5q14.469 1.18 29 1v3q-4.237-.628-6.5 3l-2 8a776 776 0 0 0-1 73q5.827 15.553 18 4 6.033-11.688 6-25a3005 3005 0 0 0 2-55l-1-4a48 48 0 0 1-6.5-4.5q9.923-2.879 20 .5-5.224 1.976-7.5 7a1641 1641 0 0 0-4 66q-.838 18.46-16.5 27.5-17.81 2.474-23.5-14.5a192 192 0 0 1-1.5-26 3771 3771 0 0 0 1.5-57q-4.082-2.886-6.5-7" />
   <path style="opacity:1" fill="#f4f2f6"
      d="M581.5 301.5a6960 6960 0 0 1 29.5 92 22.2 22.2 0 0 0 5.5 8 80.2 80.2 0 0 1-26 1.5l-1-1a47 47 0 0 1 5.5-3.5q-.377-11.371-5-22-8.625-1.711-17.5-.5-1.75.75-2.5 2.5-2.512 10.563 0 21a15.3 15.3 0 0 0 5.5 3q-.885 1.948-3 2.5a113 113 0 0 1-15 .5q4.536-7.834 6.5-17a8855 8855 0 0 1 17.5-87m407 3q2.317 1.095 2.5 4a2883 2883 0 0 0 19 93c2.48 1.375 3.31 3.209 2.5 5.5l-11.5.5a50.2 50.2 0 0 1-13.5-1.5 3.65 3.65 0 0 1-1-1.5q7.899-.52 7-8.5a57.9 57.9 0 0 0-3.5-16.5 108.4 108.4 0 0 0-20.5-1 34.5 34.5 0 0 1-2.5 11q-1.107 5.642 1 11a57 57 0 0 1 5.5 4 3.65 3.65 0 0 1-1 1.5 48.6 48.6 0 0 1-18-1.5 55.5 55.5 0 0 0 5.5-7 9973 9973 0 0 0 28.5-93" />
   <path style="opacity:1" fill="#f7f6f9"
      d="M468.5 306.5a82 82 0 0 1 18 1 15.3 15.3 0 0 0-5.5 3 892 892 0 0 0 7 84q-.273 8.97 8.5 10-2.58 2.15-6 2.5a81 81 0 0 1-23 1 23.2 23.2 0 0 1 6.5-4.5q.652-12.03-1-24a11299 11299 0 0 1-7-61q-1.567-6.816-8.5-8a3.65 3.65 0 0 1 1-1.5 839 839 0 0 1 10-2.5" />
   <path style="opacity:1" fill="#f5f4f7"
      d="M445.5 306.5q.926.166 1.5 1 .72 11.603 3 23 1.232 4.581-.5 9-3.11-14.976-15-24.5-5.661-1.774-9.5 2.5-4.557 12.92 4.5 23 13.913 9.66 24.5 23 9 21 0 42l-5.5 5.5q-10.25 3.273-20-1.5a4.93 4.93 0 0 0-2.5 1 14.7 14.7 0 0 1-1.5 5 3.65 3.65 0 0 1-1.5-1 1363 1363 0 0 1-3.5-32.5l1-3.5a663 663 0 0 0 7.5 19q4.407 7.929 13 10a11.5 11.5 0 0 0 5.5-1.5q8.172-12.439-.5-24.5l-21-19q-6.04-7.076-9-16-1-12 0-24 3.497-15.089 18.5-13.5 4.592 3.052 10 3.5-.262-3.181 1-6" />
   <path style="opacity:1" fill="#f7f6f9"
      d="M507.5 306.5q29.395-6.923 41.5 20 7.862 22.865 5 47-.42 20.608-17.5 31.5-17.196 5.215-35 2.5a57 57 0 0 1 5.5-4l1-3a1554 1554 0 0 0-4-85 6.98 6.98 0 0 0-2.5-3.5 12.8 12.8 0 0 1-6-3 96 96 0 0 1 12-2.5" />
   <path style="opacity:1" fill="#291257"
      d="M636.5 307.5q12.577-.198 16.5 12a134 134 0 0 1 3 11 345 345 0 0 1 1 49q-1.24 8.241-6.5 14.5-9.457 4.986-10.5-5.5a2652 2652 0 0 1-3.5-81" />
   <path style="opacity:1" fill="#f7f7f9"
      d="M1030.5 307.5c10.4.507 20.74 1.674 31 3.5 10.89 4.898 17.06 13.398 18.5 25.5q1.905 23.248-3 46-11.85 36.56-49.5 26.5c-2.95-.096-5.62-.929-8-2.5 2.67-.539 4.83-1.872 6.5-4q1.74-5.434 3-11 3.315-36.793 7.5-73.5c1.04-4.412-.63-7.079-5-8-.75-.671-1.09-1.504-1-2.5" />
   <path style="opacity:1" fill="#281156"
      d="M517.5 312.5q7.112-.545 12.5 4 7.191 12.072 9 26 1 21 0 42-1.132 7.553-5 14-5.33 4.885-11 1-2.605-43.532-5.5-87" />
   <path style="opacity:1" fill="#f8f7f9"
      d="M362.5 315.5q24.966-4.78 30.5 20 4.91 15.926-5 29-1 3 0 6a714 714 0 0 0 18 31q3.009 4.758 7.5 8-2.118 1.96-5 2.5-5.552.885-11 1a25.6 25.6 0 0 1-5.5-6.5 714 714 0 0 0-18-31q-1.885-3.369-5.5-4a453 453 0 0 0 6.5 38q.561 1.375 1.5 2.5 3.661.054 6 2.5a152 152 0 0 1-28 5q.495-3.914 4.5-5a90.5 90.5 0 0 0 0-19 4057 4057 0 0 1-11-67 36 36 0 0 0-3.5-4.5q-3.42-.35-6-2.5a3.65 3.65 0 0 1 1-1.5 201 201 0 0 0 23-4.5" />
   <path style="opacity:1" fill="#291257"
      d="M1051.5 315.5c8.65 1.148 13.48 6.148 14.5 15 1.49 21.122-.85 41.789-7 62-2.1 6.273-6.27 10.273-12.5 12-1.27-.07-2.44-.403-3.5-1 .9-29.545 3.73-58.878 8.5-88" />
   <path style="opacity:1" fill="#f5f4f7"
      d="M1115.5 316.5q.93.166 1.5 1c3.66 26.626 7 53.293 10 80a474 474 0 0 0 4 17 26 26 0 0 0 3.5 5c-8.96.985-17.8.319-26.5-2-.17-.333-.33-.667-.5-1 2.58-.415 4.41-1.748 5.5-4q1.005-7.5 0-15c-.15-3.071-.98-5.904-2.5-8.5a228 228 0 0 1-15-1.5l-3 1c-4.5 6.812-5.83 14.146-4 22 1.35 1.45 3.02 2.117 5 2v3a98.4 98.4 0 0 1-14-.5c-2.07-.118-3.41-1.118-4-3q7.32-7.387 10.5-17.5a3916 3916 0 0 1 29.5-78" />
   <path style="opacity:1" fill="#291257"
      d="M361.5 321.5q8.203-1.185 13.5 5 8.993 16.89 3 35-5.108 3.933-11.5 4a988 988 0 0 1-5-44" />
   <path style="opacity:1" fill="#f3f2f6"
      d="M326.5 321.5q1.494-.129 2.5 1 1.524 14.062 3 28a56.6 56.6 0 0 0-10.5-18.5q-8.385-2.68-17-.5a626 626 0 0 0 7 40q5.052-1.803 6.5-7l1-16 1-1a310 310 0 0 1 7 51 116 116 0 0 0-6-16q-2.84-5.017-8.5-4a238 238 0 0 0 6.5 39q15.672 3.659 20-12l3-16q1.824 3.693 2 8 1.095 11.985 1.5 24a837 837 0 0 0-44.5 7l-3.5-1a19.8 19.8 0 0 1 5.5-5l.5-5a9173 9173 0 0 1-11.5-78q-1.42-8.184-9.5-8v-4a403 403 0 0 0 44-6" />
   <path style="opacity:1" fill="#f6f5f8"
      d="M1155.5 323.5c9.64 1.282 19.3 2.282 29 3 .17 1.322-.16 2.489-1 3.5q-4.665-.08-7.5 3.5a578 578 0 0 0-11 86c8.89 5.197 16.22 3.53 22-5q4.515-9.552 9-19a837 837 0 0 1-6 33c-4.08 1.129-8.25 1.296-12.5.5a704 704 0 0 0-35-5c-.84-1.011-1.17-2.178-1-3.5 2.54.396 4.71-.271 6.5-2 5.64-29.508 9.98-59.175 13-89-2.73-1.259-4.56-3.259-5.5-6" />
   <path style="opacity:1" fill="#f4f3f7"
      d="M1236.5 332.5c1.66 1.449 2.5 3.449 2.5 6 2.73 27.661 5.39 55.327 8 83q.645 9.072 4.5 17-13.275-.17-25.5-5c-.17-.333-.33-.667-.5-1 6.45-1.055 8.79-4.888 7-11.5a65 65 0 0 0-1.5-13.5c-6.5-2.717-13.17-3.383-20-2-3.4 6.975-4.73 14.308-4 22a36.3 36.3 0 0 1 4.5 4l-3 1q-5.985-.915-12-1.5-2.115-.552-3-2.5 4.485-3.242 7.5-8a4778 4778 0 0 0 35.5-88" />
   <path style="opacity:1" fill="#f6f5f8"
      d="M266.5 335.5h9q-3.154 6.583-4.5 14a7435 7435 0 0 1-3 93 5028 5028 0 0 1-42-85q-2.427-5.672-7.5-9 11.681-6.287 25-5.5-5.08 3.003-4.5 8.5a605 605 0 0 0 26.5 53 601 601 0 0 0 .5-60 23.2 23.2 0 0 0-8.5-5.5q4.953-.992 9-3.5" />
   <path style="opacity:1" fill="#2d165a"
      d="M577.5 338.5q2.909 3.849 4.5 9a1346 1346 0 0 1 5.5 22q-7.4.645-14.5 0a165.6 165.6 0 0 1 4.5-31" />
   <path style="opacity:1" fill="#311a5d"
      d="M981.5 339.5q1.79.705 2 3 2.255 11.015 4.5 22 1.153 3.899-.5 7.5-6 1-12 0-1.524-.779-2-2.5a1219 1219 0 0 1 8-30" />
   <path style="opacity:1" fill="#f7f6f9"
      d="M1285.5 343.5a179.4 179.4 0 0 1 29 8c-3.36.35-6.19 1.684-8.5 4-5.13 18.871-9.8 37.871-14 57a149 149 0 0 1-8 23q-8.235 13.515-22.5 7.5c-3.58-3.737-5.42-8.237-5.5-13.5-1.94-8.438.73-14.771 8-19 1.61.601 2.94 1.601 4 3q1.005 4 0 8-2.52 5.755-4.5 11.5-.12 6.384 6 5a9.3 9.3 0 0 0 1.5-2.5c7.13-26.203 13.8-52.537 20-79 .81-2.402.65-4.735-.5-7-2.44-1.431-4.1-3.431-5-6m-1079 6q11.236-.496 1.5 5a12.5 12.5 0 0 0 0 7 944 944 0 0 0 22.5 81.5 135 135 0 0 0 7 2.5q-.885 1.948-3 2.5a432 432 0 0 0-22 5.5l-3-1q6.361-3.732 4.5-11a5852 5852 0 0 0-17-66 69 69 0 0 0-6-15q-2.874-2.142-6.5-3 .885-1.948 3-2.5 9.904-2.093 19-5.5" />
   <path style="opacity:1" fill="#30195c"
      d="M1105.5 351.5c1.43.381 2.26 1.381 2.5 3a126 126 0 0 1 1.5 29 53.8 53.8 0 0 0-14-1 210 210 0 0 1 10-31" />
   <path style="opacity:1" fill="#9a90b0" d="M723.5 302.5h-4v83a1765 1765 0 0 1-1-84q2.872-.426 5 1" />
   <path style="opacity:1" fill="#f6f5f8"
      d="M1338.5 354.5c1.83 32.318 2.66 64.985 2.5 98 1.51 3.296 2.68 6.629 3.5 10a888 888 0 0 0-24-5.5 7.25 7.25 0 0 1-2-2.5q5.76-.727 7.5-6c.5-6.658.67-13.325.5-20a245 245 0 0 1-18.5-4c-5.15 6.781-7.48 14.448-7 23 6.15 4.111 5.32 5.611-2.5 4.5a41.7 41.7 0 0 1-12-4.5 68 68 0 0 1 6.5-5 1312 1312 0 0 0 45.5-88" />
   <path style="opacity:1" fill="#f4f3f6"
      d="M169.5 359.5q2.217-.393 4 1-5.61 4.764-3.5 12a4141 4141 0 0 0 25.5 86q-2.052 1.64-3.5-1a3748 3748 0 0 0-55-61 515 515 0 0 0 18 60q1.845 8.601 10.5 9a7.25 7.25 0 0 1-2 2.5 427 427 0 0 1-16 4.5q.103-3.876 3.5-6a16.24 16.24 0 0 0 0-8 903 903 0 0 0-23-72q-2.588-6.84-9.5-9 .885-1.948 3-2.5 7.73-3.39 16-3l41.5 47.5a430 430 0 0 0-13-45q-2.576-7.422-10.5-8a7.25 7.25 0 0 1 2-2.5q6.106-2.445 12-4.5" />
   <path style="opacity:1" fill="#2f195b"
      d="M1226.5 368.5c1.29 1.371 1.95 3.205 2 5.5q1.575 12.735 1.5 25.5c-1.06.597-2.23.93-3.5 1l-11-2a142 142 0 0 1 11-30" />
   <path style="opacity:1" fill="#f8f7f9"
      d="M1379.5 369.5c12.98 3.157 25.15 8.157 36.5 15 7.47 16.304 4.64 30.804-8.5 43.5-2.98 2.324-6.31 3.824-10 4.5-.17 14.67 0 29.337.5 44 .43 3.442 2.26 4.942 5.5 4.5a25.5 25.5 0 0 0 6.5-5.5 2313 2313 0 0 1 54-74 1720 1720 0 0 1-10 82q-1.005 9 0 18a4.5 4.5 0 0 1 1.5 2c-9.49.114-18.16-2.719-26-8.5q3.885-.339 7.5-1.5c2.55-7.759 3.71-15.592 3.5-23.5q-8.61-4.334-18-5c-5.77 5.699-8.61 12.532-8.5 20.5a20 20 0 0 1 3.5 4c-.67.333-1.33.667-2 1a346 346 0 0 1-31-11.5c-1.15-16.09-1.98-32.256-2.5-48.5a4.5 4.5 0 0 0-1.5-2 210.3 210.3 0 0 0-13.5 32 12.44 12.44 0 0 0 0 7c2.17 1.009 3.34 2.676 3.5 5a86.9 86.9 0 0 1-24-9c3.79-2.905 6.62-6.572 8.5-11a2340 2340 0 0 0 28-72 12.44 12.44 0 0 0 0-7c-2.07-.603-3.24-1.936-3.5-4" />
   <path style="opacity:1" fill="#2b1458"
      d="M1397.5 382.5q13.83 2.139 10.5 16c-2.09 9.286-6.25 17.453-12.5 24.5-4.33.667-8.67.667-13 0q5.475-20.65 15-40.5" />
   <path style="opacity:1" fill="#f4f3f7"
      d="M106.5 382.5q2.682-.428 5 1-3.378 3.006-4 7.5a1414 1414 0 0 0 16.5 57.5 86.7 86.7 0 0 1 3.5 19q-.755 26.029-26 21.5-7.82-5.319-12.5-13.5a1046 1046 0 0 1-23-69q-2.307-5.55-8.5-6 5.745-4.514 13-6.5a108.5 108.5 0 0 1 14-3.5q-.495 3.914-4.5 5-1 2.5 0 5a1120 1120 0 0 0 22 72q6.449 12.546 18 5 3.266-4.774 3.5-10.5a320.3 320.3 0 0 0-22.5-74.5q-3.21-2.98-7.5-4a81 81 0 0 1 13-6" />
   <path style="opacity:1" fill="#2a1358"
      d="M1325.5 389.5a257 257 0 0 1 1 32 49.5 49.5 0 0 1-13-1.5c-.93-.388-1.59-1.055-2-2 4.04-9.852 8.7-19.352 14-28.5" />
   <path style="opacity:1" fill="#2e175b"
      d="M1445.5 431.5c.65.774.98 1.774 1 3a862 862 0 0 0-4 29c-5.64-.321-10.3-2.488-14-6.5a345 345 0 0 1 17-25.5" />
   <path style="opacity:1" fill="#755737"
      d="M21.5 455.5q13.038-.497 26 1-.186.91-1 1a1434 1434 0 0 1-25-2" />
   <path style="opacity:1" fill="#260f54"
      d="M1330.5 505.5a154.2 154.2 0 0 1 34 10.5q62.325 26.515 112.5 71.5c1 15.329-3.67 28.662-14 40a93.7 93.7 0 0 1-19.5 14.5 511.3 511.3 0 0 1-92 35c-39.68 9.77-79.35 19.603-119 29.5a8816 8816 0 0 1-171-97.5 42541 42541 0 0 0 269-103.5m-1156 0a27910 27910 0 0 1 276 106.5 10541 10541 0 0 0-168 99 153 153 0 0 0-13.5 3.5A5563 5563 0 0 1 31.5 631Q5.263 612.977 25 587.5q65.827-56.798 149.5-82" />
   <path style="opacity:1" fill="#281054"
      d="M737.5 505.5h4a1027 1027 0 0 0-1 46q-49.916-.446-88.5 31 16.761-41.151 54.5-65.5 14.746-8.326 31-11.5" />
   <path style="opacity:1" fill="#291054"
      d="M769.5 507.5q27.914 2.218 49 20.5 26.879 23.31 40.5 55.5-39.247-31.167-89.5-31z" />
   <path style="opacity:1" fill="#271054"
      d="M727.5 576.5a683 683 0 0 1 71 2.5q29.816 3.606 56 18 5.883 4.876 9.5 11.5a420 420 0 0 1 0 41q-4.75 10.75-15.5 15.5-34.899 15.08-73 16-56.345 5.628-110-12-12.693-4.464-21.5-14.5a32.5 32.5 0 0 1-3-7 361 361 0 0 1 0-38q5.25-11.25 16.5-16.5 23.338-10.944 49-14 10.806-.518 21-2.5" />
   <path style="opacity:1" fill="#f9d206"
      d="M752.5 585.5q7.15.882 9.5 8a155.3 155.3 0 0 1 6.5 30.5 212.4 212.4 0 0 1-6.5 33.5q-7.151 13.802-14 0a238 238 0 0 1-7.5-34 169 169 0 0 1 7.5-33q1.588-3.239 4.5-5" />
   <path style="opacity:1" fill="#f8d008"
      d="M707.5 590.5q6.741-.505 8.5 6a393 393 0 0 1 6.5 27 343 343 0 0 1-6.5 30q-6.151 11.8-12 0a162.3 162.3 0 0 1-6.5-30 176 176 0 0 1 5.5-27q1.916-3.37 4.5-6" />
   <path style="opacity:1" fill="#f9d107"
      d="M793.5 593.5q5.385.066 7.5 5a196 196 0 0 1 6.5 28.5 197 197 0 0 1-6.5 30.5q-4.78 9.325-11 1a334 334 0 0 1-7.5-31.5 157 157 0 0 1 7.5-30.5 30 30 0 0 1 3.5-3" />
   <path style="opacity:1" fill="#f6cf0a"
      d="M673.5 597.5q4.713.449 6.5 5a614 614 0 0 1 4.5 21.5 172 172 0 0 1-6 26.5q-6.72 4.619-7.5-4a146 146 0 0 1-4.5-23.5 133 133 0 0 1 3.5-19.5q.846-3.58 3.5-6" />
   <path style="opacity:1" fill="#f6ce0a"
      d="M829.5 600.5q5.523-1.162 7.5 4a614 614 0 0 1 4.5 21.5 202 202 0 0 1-5.5 26.5q-3.5 4-7 0-8.025-20.59-3-42a35.6 35.6 0 0 1 3.5-10" />
   <path style="opacity:1" fill="#260f54"
      d="M1360.5 821.5c-6.37-.33-12.7.004-19 1 .12.607.46.94 1 1a994 994 0 0 1 28 25.5l-32 1a612 612 0 0 0 32 27l-32 1a1419 1419 0 0 0 32 31.5c-10.35-.332-20.69.001-31 1 .12.607.46.94 1 1a1151 1151 0 0 1 31 26.5c-10.18.122-20.35-.378-30.5-1.5l-4.5 1q9.12 13.278 16.5 27a13828 13828 0 0 0-98.5-50.5c-.99-22.758-1.33-45.592-1-68.5-44.33.167-88.67 0-133-.5a1233 1233 0 0 1-42-21.5 323 323 0 0 0 17-5c-10.69-8.357-21.35-16.691-32-25l31-2a1434 1434 0 0 1-31-32.5c2.31-.497 4.64-.663 7-.5 8.16 1.157 16.49 1.323 25 .5-.54-.717-1.21-1.217-2-1.5a1187 1187 0 0 0-33-23.5l33-1-33-25 35-1c-11.67-11-23.33-22-35-33q16.35 2.704 33 4a331 331 0 0 1-14-16.5c.98-2.814 2.82-4.814 5.5-6a9999 9999 0 0 1 189.5 93.5 1940 1940 0 0 1 65 36 413 413 0 0 0 25 11c-7.37.821-14.7 1.821-22 3l30 22q-5.985.749-12 .5m-950-114q-.814.09-1 1 5.22 1.959 10 0 12.51-.25 25 .5l-33 25 33 1-35 25q15.993-.222 32 0a1341 1341 0 0 1-30 31.5q-1.184.425-2 1.5 16.493.75 33 .5a18161 18161 0 0 0-33 26 84 84 0 0 0 15 4.5q2 1 0 2a965 965 0 0 0-37 19q-72.01 1.142-144-.5.25 37.004-.5 74a11607 11607 0 0 0-90.5 47q-1.532-.752-.5-2l16.5-25-6.5-1a336 336 0 0 1-28.5 1.5l31-27-31-1a745 745 0 0 0 33-32 85 85 0 0 0-13-.5q-9.285.485-18-1 14.94-12.484 30-25 .814-.09 1-1a111 111 0 0 0-21-1 61 61 0 0 1-11-.5 995 995 0 0 1 28-25.5q.814-.09 1-1-9.95-1.495-20-1a61 61 0 0 1-11-.5l30-22a291 291 0 0 1-22-3 486 486 0 0 0 27-12 1216 1216 0 0 1 71-39l180-89q1.5-1 3 0a51 51 0 0 1 4 5.5 372 372 0 0 1-15 17.5l34-5a1578 1578 0 0 0-34 32.5" />
   <path style="opacity:1" fill="#281054"
      d="M793.5 725.5q1.356-1.063 1-3h-32v-17q20.127.645 40-2.5a595 595 0 0 0 45.5-13.5q-4.935 20.467-24.5 29.5l-9 3.5a183 183 0 0 0-1 27q-51.27 19.053-104 4.5a126 126 0 0 1-14-5.5 412 412 0 0 0-3.5-20q-26.922-11.928-34.5-40.5 23.295 8.758 48 14a193 193 0 0 0 39 3.5v18h-34q1.97 8.23 10 11.5 14.963 5.767 31 4.5 21.043 2.194 39-8.5a24.3 24.3 0 0 0 3-5.5" />
   <path style="opacity:1" fill="#91722b"
      d="M762.5 705.5v17h32q.356 1.937-1 3-15.422-2.964-32-2-.485-9.285 1-18" />
   <path style="opacity:1" fill="#61453e"
      d="M410.5 707.5q4.18 1.465 9 1-4.78 1.959-10 0 .186-.91 1-1" />
   <path style="opacity:1" fill="#836433"
      d="M1093.5 757.5c.79.283 1.46.783 2 1.5-8.51.823-16.84.657-25-.5 7.85.325 15.52-.008 23-1" />
   <path style="opacity:1" fill="#260f54"
      d="M699.5 770.5q.895.352 1 1.5A4664 4664 0 0 0 661 899.5a10367 10367 0 0 1 71-117 7549 7549 0 0 1 14 173 20957 20957 0 0 1 24-175 8925 8925 0 0 1 65 109 11684 11684 0 0 1-29-118l97 65q1-1 0-2L850.5 772a20564 20564 0 0 1 206 86 3.9 3.9 0 0 1 1 2q-8.205 29.228-33 47c-22.21 14.516-46.54 23.516-73 27a332 332 0 0 1-34.5 3.5 138 138 0 0 1-20.5-2.5 685 685 0 0 1-43 45l-25 19c-17.413 9.21-35.746 15.87-55 20-23.391 4.71-46.057 2.37-68-7a870 870 0 0 0-33-22 1600 1600 0 0 1-48-47q-11.499-6.992-25-8-51.956.76-98-23l-6-4a1800 1800 0 0 0-50-51 13768 13768 0 0 1 210-84q-40.255 37.523-78 75.5 61.097-39.036 122-78" />
   <path style="opacity:1" fill="#7c5e33"
      d="m1094.5 791.5-31 2c-.79-.283-1.46-.783-2-1.5q16.485-.75 33-.5" />
   <path style="opacity:1" fill="#997928"
      d="M411.5 791.5q16.356.967 31 2-16.507.25-33-.5.816-1.075 2-1.5" />
   <path style="opacity:1" fill="#a38228"
      d="m1360.5 821.5-18 2c-.54-.06-.88-.393-1-1 6.3-.996 12.63-1.33 19-1" />
   <path style="opacity:1" fill="#684a3d" d="M143.5 822.5q10.05-.495 20 1-.186.91-1 1z" />
   <path style="opacity:1" fill="#af8d23" d="M145.5 850.5q10.548-.495 21 1-.186.91-1 1z" />
   <path style="opacity:1" fill="#df371b"
      d="M719.5 1032.5c-91.498 1-183.165 1.33-275 1-4.381.13-8.715-.21-13-1-.167 236.67 0 473.33.5 710 4.223 29.28 19.056 51.45 44.5 66.5q14.085 8.355 30 12c58.667.33 117.333.67 176 1 32.837 5.49 58.004 22.33 75.5 50.5 16.642-24.6 39.475-40.77 68.5-48.5 54.998-.87 109.998-1.53 165-2 27.29-6.23 48.12-21.4 62.5-45.5a161.4 161.4 0 0 0 18-46c.5-232 .67-464 .5-696-92.667-.67-185.333-1.33-278-2 10.685-1.95 20.685-5.79 30-11.5 11.667-7.67 23.333-15.33 35-23a209.1 209.1 0 0 0 40-44q62.082 3.57 117-25c26.96-15.462 47.63-36.962 62-64.5 52.66-1 105.33-1.333 158-1 .17 329 0 658-.5 987-9.7 39.63-30.54 71.79-62.5 96.5-14.41 9.37-30.07 15.7-47 19-87 .17-174.005.84-261 2-32.256 8.3-61.923 21.96-89 41a425 425 0 0 0-18 16.5q-44.854-47.685-110-58.5a20985 20985 0 0 0-285-2c-33.461-7.8-61.294-24.64-83.5-50.5-10.787-14.92-17.121-31.59-19-50q-.75-501-.5-1002a8380 8380 0 0 0 181 1q5.867 25.137 26 41.5 29.755 22.376 66 32a362.2 362.2 0 0 0 79 13c21.191 27.193 46.191 50.19 75 69a134.5 134.5 0 0 0 32 13.5" />
   <path style="opacity:1" fill="#876832"
      d="M135.5 877.5q8.715 1.485 18 1-9.73 1.731-20 .5.816-1.075 2-1.5" />
   <path style="opacity:1" fill="#42294a"
      d="M1370.5 909.5q-14.145 1.034-30 2c-.54-.06-.88-.393-1-1a241 241 0 0 1 31-1" />
   <path style="opacity:1" fill="#fed500"
      d="M378.5 919.5a478 478 0 0 1 26 26 699 699 0 0 1-22 22.5 902 902 0 0 1 25 25.5q-11.55 13.05-25 24c-8.667-7.67-17.333-15.33-26-23l-25 24a800 800 0 0 1-24-23.5l26-26a902 902 0 0 1-25-25.5 255 255 0 0 1 23.5-23 727 727 0 0 1 23.5 22 374 374 0 0 0 23-23m779 1a476 476 0 0 1 26 26c-7.33 7.667-14.67 15.333-22 23a905 905 0 0 0 25 25.5l-24.5 24.5a910 910 0 0 0-26.5-24c-8 8.67-16.33 17-25 25a412 412 0 0 1-24-24 976 976 0 0 1 26-26.5c-8.33-8.333-16.67-16.667-25-25 7.83-7.833 15.67-15.667 23.5-23.5 7.67 7.667 15.33 15.333 23 23a788 788 0 0 0 23.5-24" />
   <path style="opacity:1" fill="#6c4f39"
      d="M1255.5 929.5c-1 57.831-1.33 115.83-1 174-.67-28.26-1-57.26-1-87 .33-29.333.67-58.667 1-88 .61.124.94.457 1 1" />
   <path style="opacity:1" fill="#260f54"
      d="M1255.5 929.5q49.2 26.846 96 57.5a46.6 46.6 0 0 1 10.5 10.5c4.56 12.51.39 21.01-12.5 25.5-31.54 27.04-63.21 53.88-95 80.5-.33-58.17 0-116.169 1-174m-1014 8q2 85.5 0 171a4368 4368 0 0 1-107.5-86c-3.454-5.85-3.12-11.51 1-17a96.2 96.2 0 0 1 17.5-15.5 1484 1484 0 0 1 89-52.5" />
   <path style="opacity:1" fill="#f08d0c"
      d="M719.5 1032.5q2.133.315 4 1.5c-93.168.83-186.168.67-279-.5 91.835.33 183.502 0 275-1m75 0c92.667.67 185.333 1.33 278 2-95.001.17-190.001 0-285-.5q3.549-.66 7-1.5" />
   <path style="opacity:1" fill="#8b6c2e"
      d="M1055.5 1726.5v-675h-607v683q-1.5-341.745-1-684h609c.33 225.5 0 450.83-1 676" />
   <path style="opacity:1" fill="#260f54"
      d="M1055.5 1726.5c-5.48 25.8-17.81 47.63-37 65.5-8.53 6.77-18.2 11.1-29 13-55.343.12-110.676.78-166 2q-37.719 10.47-65.5 37.5c-18.619-20.93-41.785-33.77-69.5-38.5a8597 8597 0 0 0-181-2q-35.968-10.59-53.5-43.5a73.3 73.3 0 0 1-5.5-26v-683h607z" />
   <path style="opacity:1" fill="#4e3445"
      d="M241.5 937.5q.09-.814 1-1c1.167 57.997 1.333 116 .5 174-.717-.54-1.217-1.21-1.5-2q2-85.5 0-171" />
   <path style="opacity:1" fill="#709304"
      d="M781.5 1373.5c-.166-5.68.001-11.34.5-17 3.028-6.03 7.195-11.2 12.5-15.5 6-4.67 12-9.33 18-14-11.467-.9-22.8-.07-34 2.5-.16-1.7.006-3.37.5-5a344 344 0 0 1 10-28 105 105 0 0 0-14.5 9.5 304 304 0 0 1-15 14.5 148 148 0 0 0-28-22c2.427 7.58 5.594 15.25 9.5 23q3.32 7.2 4.5 15a765 765 0 0 0-21-6.5 404 404 0 0 0-18-3q19.31 15.06 34 34.5-6.825 3.075-11.5 9-33.183 12.075-67.5 4.5a113 113 0 0 1-18-9c-25.715-21.91-43.548-49.08-53.5-81.5-5.487-20.56-2.821-39.9 8-58 1.667-1.67 3.333-3.33 5-5a982 982 0 0 1-1.5-25c.675-42.5 22.008-66.67 64-72.5 6.667-.33 13.333-.67 20-1q19.791-23.82 48-36c28.755-9.41 54.422-4.08 77 16a191 191 0 0 1 16 17q28.487.75 53 15c19.296 15.2 26.796 35.04 22.5 59.5-.812 5.7-1.479 11.37-2 17 12.171 13.19 20.504 28.52 25 46 2.498 19.51-3.168 36.17-17 50-12.71 24.38-29.543 45.55-50.5 63.5-18.461 12.19-38.461 15.52-60 10q-8.628-2.565-16-7.5" />
   <path style="opacity:1" fill="#270f54"
      d="M1296.5 1098.5c4.32 1.46 8.32 3.63 12 6.5 45.16 31.67 90.16 63.5 135 95.5q-48.705 18.15-97.5 36c1.02 32.48 2.19 64.98 3.5 97.5-.33 3.17-.67 6.33-1 9.5a9411 9411 0 0 1-94.5-68c-.67-48.67-.67-97.33 0-146 14.35-10.2 28.52-20.53 42.5-31" />
   <path style="opacity:1" fill="#260f54"
      d="M209.5 1098.5a542 542 0 0 1 33 23c1.167 54.33 1.333 108.66.5 163a5943 5943 0 0 0-84 61 3830 3830 0 0 1 3.5-100l-1-9a3351 3351 0 0 1-97-35.5 8411 8411 0 0 0 145-102.5" />
   <path style="opacity:1" fill="#fed300"
      d="M321.5 1170.5c1.533 1.85 3.2 3.69 5 5.5a556 556 0 0 0 34 21c8.191 1.1 16.191.44 24-2 .833-.83 1.667-1.67 2.5-2.5.667 8.33.667 16.67 0 25q-1.422-3.105-4.5-4.5a99.8 99.8 0 0 0-20 0c-10.333 5.67-20.667 11.33-31 17a36.4 36.4 0 0 0-9 8.5 131.3 131.3 0 0 1-.5-28c.9 1.9 2.066 3.56 3.5 5a343 343 0 0 0 31-16.5 182.4 182.4 0 0 0-27-16q-2.5-1.005-5 0a20.5 20.5 0 0 1-2.5 4.5c-.499-5.66-.666-11.32-.5-17m850 4h17c-.03 20.01-.36 40.01-1 60-5.68.17-11.34 0-17-.5 4.91-1.71 9.08-4.54 12.5-8.5 1.37-4.2 1.87-8.53 1.5-13-19.67-.17-39.34 0-59 .5a32.6 32.6 0 0 0-3.5 5.5q-1.005-15 0-30 1.785 2.82 3 6c1.07.69 2.23 1.19 3.5 1.5 18.67.67 37.33.67 56 0 .96-4.25.46-8.42-1.5-12.5-3.49-3.64-7.32-6.64-11.5-9" />
   <path style="opacity:1" fill="#281153"
      d="M623.5 1212.5q25.061 11.775 50.5 0 2.379 1.32 4.5 3c-17.424 20.52-35.591 21.19-54.5 2-1.519-1.64-1.686-3.31-.5-5" />
   <path style="opacity:1" fill="#271153"
      d="M827.5 1212.5a132 132 0 0 0 14 5.5c12.527 1.66 24.527-.17 36-5.5 1.667.83 3.333 1.67 5 2.5-18.666 21.63-37.499 21.8-56.5.5q-.359-1.935 1.5-3" />
   <path style="opacity:1" fill="#281153"
      d="M728.5 1213.5c6.791 4.43 14.291 6.76 22.5 7q14.103-1.365 27.5-6c1.83.28 3.497.94 5 2q-18.703 25.005-46 10.5c-4.333-3-8-6.67-11-11 .881-.71 1.547-1.54 2-2.5" />
   <path style="opacity:1" fill="#271153"
      d="M675.5 1242.5q24.774 11.655 50 0c1.667.83 3.333 1.67 5 2.5-18.618 21.62-37.452 21.79-56.5.5q-.359-1.935 1.5-3" />
   <path style="opacity:1" fill="#281153"
      d="M778.5 1243.5a85.5 85.5 0 0 1 12 4.5q19.908 3.795 38.5-4.5 2.927.585 4.5 3-27.67 31.935-55.5 0-.705-1.62.5-3" />
   <path style="opacity:1" fill="#fed400"
      d="M1121.5 1243.5c1.19 1.85 2.52 3.69 4 5.5 18.64 1.52 37.31 1.85 56 1 2.87-1.3 4.71-3.47 5.5-6.5.89 14.71.56 29.37-1 44-3.46 12.15-11.3 16.65-23.5 13.5-5.2-3.23-8.87-7.73-11-13.5a707 707 0 0 1-26 18.5 50 50 0 0 0-4 5.5 67.4 67.4 0 0 1-.5-20 759 759 0 0 0 30-22c.49-1.29.66-2.63.5-4-8.34-.17-16.67 0-25 .5-2.98 1.15-4.64 3.31-5 6.5-1.16-9.67-1.16-19.33 0-29" />
   <path style="opacity:1" fill="#e03d1b"
      d="M1154.5 1265.5h30c1.44 17.28-6.23 23.78-23 19.5-4.02-1.87-6.19-5.03-6.5-9.5-.5-3.32-.67-6.65-.5-10" />
   <path style="opacity:1" fill="#fed200"
      d="M385.5 1270.5c1.325 3.78 1.991 7.94 2 12.5l-1 12.5q-1.124-2.265-3.5-3a109 109 0 0 0-13.5 5 157 157 0 0 0-1 25q5.814 2.1 12 3c3.349.65 5.349-.69 6-4a48.7 48.7 0 0 1 .5 17c-1.25-2.67-3.083-4.84-5.5-6.5-20.697-9.68-41.364-19.35-62-29a1384 1384 0 0 0 64-29c1.323-.82 1.989-1.98 2-3.5" />
   <path style="opacity:1" fill="#281253"
      d="M829.5 1294.5c4.271 1.8 8.604 3.63 13 5.5q10 1.005 20 0 8.551-2.1 17-4.5c1.981-.06 3.648.6 5 2-18.155 20.83-36.655 21.17-55.5 1-.579-1.43-.412-2.76.5-4" />
   <path style="opacity:1" fill="#fcd402"
      d="M781.5 1373.5c-.333 22.34 0 44.68 1 67q11.465 6.72 18.5 18a3238 3238 0 0 0 37.5 38.5q16.528 8.94 35 7.5 2.325-5.7 2-12a67 67 0 0 0-1-10.5q-6.472-4.455-13-9a79 79 0 0 1-9-12q4.974-1.695 10.5-1.5c6.832.42 13.666.76 20.5 1q.192-3.225-1.5-6-7.428-8.445-18-12a12.8 12.8 0 0 0-5.5 2c-4.423-7.31-5.09-14.97-2-23 19.431.21 38.765-.62 58-2.5 18.681 5.01 31.348 16.68 38 35q5.334 15.33 4.5 31.5-6.376 19.755-19 36a12.5 12.5 0 0 0 0 7 466 466 0 0 1 45 36c3.521 4.41 7.021 8.75 10.5 13q2.888-.135 3.5-3c.667-2.33.667-4.67 0-7a1395 1395 0 0 0-17-57q-10.769-29.49 4-57c5.35-6.75 12.183-11.09 20.5-13 14.46 3.82 24.96 12.49 31.5 26 6.65 13.31 7.31 26.98 2 41a210 210 0 0 1-9 17c-14.46-16.73-16.96-35.06-7.5-55a36.3 36.3 0 0 0-11-11.5c-6-.75-10.835 1.41-14.5 6.5-5.521 8.73-6.855 18.07-4 28 9.34 34.68 18.67 69.35 28 104 .8 23.14-4.54 44.81-16 65-2.59 6.42-1.75 12.26 2.5 17.5 1.97.5 3.97.66 6 .5.79 10.85 1.79 21.68 3 32.5-2.84 4.86-6.51 9.19-11 13q-15.5 1.005-31 0-4.061-2.79-2.5-7.5a28.3 28.3 0 0 1 7.5-4.5c6.011-1.84 12.011-3.67 18-5.5 3.76-6.25 3.93-12.58.5-19a121.2 121.2 0 0 0-20.5-16.5c-6.071-6.64-9.571-14.48-10.5-23.5-.825-12.32-1.492-24.66-2-37-5.082-4.29-10.916-7.12-17.5-8.5a392 392 0 0 0-50-9c-14.642-6.31-25.809-16.47-33.5-30.5l-6-12c-.769-9.66-4.602-17.82-11.5-24.5q-15.343-5.04-26.5-16.5c-7-12.33-14-24.67-21-37a64.4 64.4 0 0 1-6.5-7 25.8 25.8 0 0 0-10-1q-.25 21 .5 42a2093 2093 0 0 0 62.5 45.5c4.081 7.5 8.415 14.83 13 22q-14.885 1.23-28-6a1237 1237 0 0 0-43.5-40.5l-4-10a7222 7222 0 0 0 0 170q16.22 30.72 48.5 43.5a323 323 0 0 1-39 5.5h-12v6q.164 20.16-15 33c-11.024-4.86-17.857-13.19-20.5-25a47.2 47.2 0 0 1-1.5-12q-22.573.675-44-6 20.041-10.41 35.5-27c3.388-4.11 5.721-8.78 7-14q.75-63 .5-126c1.161-14.49 1.328-29.16.5-44q-1.559 1.11-1.5 3-3.622 5.88-9 10.5c-19.453 13.23-40.119 23.39-62 30.5a104 104 0 0 0 14-27 236.7 236.7 0 0 0 45-22.5q6.846-6.6 13-13.5a343 343 0 0 0 1-37c-1.291-.24-2.291.1-3 1a40.7 40.7 0 0 0-8.5 6 380 380 0 0 1-22 30 429 429 0 0 1-36 32l-8 12q-7.749 25.215-26.5 43.5c-8.713 5.91-18.38 9.24-29 10-13.866.81-27.699.64-41.5-.5q-7.555 3.6-8.5 12c.533 4.65.866 9.32 1 14-.983 12.68-2.15 25.35-3.5 38-6.292 12.72-16.458 19.89-30.5 21.5-2.381 1.51-3.381 3.68-3 6.5a78 78 0 0 0 3 16q9.81 5.655 20 10.5c3.462 2.24 4.795 5.41 4 9.5h-44a601 601 0 0 1 1-49c6.025-2.72 9.025-7.38 9-14-.905-7.48-3.738-14.14-8.5-20a533 533 0 0 1-8-57 8990 8990 0 0 1 33-102c1.217-7.98.217-15.64-3-23q-13.966-13.875-28 0a60 60 0 0 1-3.5 6.5c11.608 19.01 10.441 37.17-3.5 54.5q-26.012-26.115-12-60c8.22-14.56 20.553-23.22 37-26 13.969 1.98 23.969 9.31 30 22a115 115 0 0 1 1 29 396.7 396.7 0 0 1-24 77q-1 9 0 18a216 216 0 0 1 39.5-38.5c3.698-1.85 7.364-3.68 11-5.5a12.5 12.5 0 0 0 2.5-4c.667-3.67.667-7.33 0-11a754 754 0 0 0-12-35c-2.038-21.05 2.795-40.39 14.5-58a172.7 172.7 0 0 1 31-16.5 75 75 0 0 1 13-1.5q20.555 3.72 41 0 3.494 10.425.5 21c-4.414 6.54-10.414 10.87-18 13a18.4 18.4 0 0 0-.5 6c6.667-1.67 13.333-3.33 20-5h5v5q-1.46 8.16-8 13.5a99 99 0 0 1-14.5 7.5c-3.872 6.15-5.539 12.82-5 20q2.46 3.63 7 3a337 337 0 0 0 33.5-4.5c2.348-.35 4.181-1.51 5.5-3.5 11.333-12.67 22.667-25.33 34-38a89 89 0 0 1 14.5-13 629 629 0 0 0 1.5-74 16.6 16.6 0 0 0-2.5-4q-14.69-19.44-34-34.5 8.902 1.275 18 3a765 765 0 0 1 21 6.5 55.5 55.5 0 0 0-4.5-15c-3.906-7.75-7.073-15.42-9.5-23a148 148 0 0 1 28 22 304 304 0 0 0 15-14.5c4.563-3.56 9.396-6.73 14.5-9.5a344 344 0 0 0-10 28 12.9 12.9 0 0 0-.5 5c11.2-2.57 22.533-3.4 34-2.5-6 4.67-12 9.33-18 14-5.305 4.3-9.472 9.47-12.5 15.5-.499 5.66-.666 11.32-.5 17" />
   <path style="opacity:1" fill="#df3c1b"
      d="M363.5 1299.5c1.959 6.25 2.626 12.92 2 20a106.5 106.5 0 0 1-22-9.5q9.95-5.715 20-10.5" />
   <path style="opacity:1" fill="#281253"
      d="M630.5 1300.5a85.5 85.5 0 0 1 12 4.5q19.838 3.405 38.5-4.5 2.927.585 4.5 3-27.67 31.935-55.5 0-.705-1.62.5-3" />
   <path style="opacity:1" fill="#fed101"
      d="M1120.5 1313.5a54.4 54.4 0 0 0 6 6.5c20.22 9.61 40.22 19.44 60 29.5a516 516 0 0 1-48 21.5c-4.67 2.33-9.33 4.67-14 7a25.5 25.5 0 0 0-4 4.5c-1.33-9.67-1.33-19.33 0-29 .82 1.61 1.49 3.27 2 5 5.17.24 10.17-.93 15-3.5 1.77-8.3 2.1-16.63 1-25-4.3-2.83-8.97-3.83-14-3a30.1 30.1 0 0 0-4.5 7.5c.34-6.95.51-13.95.5-21" />
   <path style="opacity:1" fill="#df3a1b"
      d="M1142.5 1332.5c7.71 2.69 15.04 6.19 22 10.5a430 430 0 0 1-21.5 9.5c-.5-6.66-.67-13.33-.5-20" />
   <path style="opacity:1" fill="#271153"
      d="M804.5 1342.5c10.428 6.88 21.761 8.71 34 5.5q7.545-2.1 15-4.5c1.83.28 3.497.94 5 2-12.937 17.32-28.603 20.49-47 9.5-4-2.67-7.333-6-10-10a84 84 0 0 0 3-2.5" />
   <path style="opacity:1" fill="#281153"
      d="M657.5 1344.5a132 132 0 0 0 14 5.5c12.836 1.48 25.17-.36 37-5.5q2.596.795 4 3-25.24 29.895-53.5 3-3.06-2.67-1.5-6" />
   <path style="opacity:1" fill="#fed200"
      d="M320.5 1350.5c6.813-.99 13.813-1.32 21-1a107 107 0 0 0-12 6.5q-11.19 11.79-1 24c4.005 1.1 7.505.26 10.5-2.5 3.919-6.17 7.586-12.5 11-19q10.122-19.8 30.5-10.5c7.196 6.26 10.03 14.09 8.5 23.5a95.5 95.5 0 0 1-3.5 13 19 19 0 0 1 3 7c-7.696.33-15.362 0-23-1q12.757-3.735 19.5-15c3.968-10.05.968-16.72-9-20q-5.662 1.14-9 6a145.7 145.7 0 0 1-16.5 25.5c-14.589 7.58-24.756 3.75-30.5-11.5q-1-4.5 0-9c1.37-3.78 2.536-7.61 3.5-11.5q-.033-3.27-3-4.5" />
   <path style="opacity:1" fill="#ef870d"
      d="M341.5 1349.5c-7.187-.32-14.187.01-21 1q-1.184-.42-2-1.5c7.845-.82 15.511-.66 23 .5" />
   <path style="opacity:1" fill="#fed200"
      d="M1184.5 1390.5c1.32 3.44 1.99 7.27 2 11.5-.35 9.17-.85 18.34-1.5 27.5q-2.085 17.61-19.5 16.5c-5.66-2.79-9.33-7.29-11-13.5-1.74 3.71-3.57 7.38-5.5 11-10.92 9.1-19.92 7.44-27-5-.92-2.6-1.59-5.27-2-8-.98-13.16-.64-26.16 1-39 .27 1.83 1.11 3.33 2.5 4.5 18.64 1.54 37.3 1.87 56 1 3.45-.73 5.12-2.89 5-6.5m-863 11c1.554 1.41 2.888 3.08 4 5q1.942.9 4 1.5c19.333.33 38.667.67 58 1 .333.33.667.67 1 1l-54 45q21.5 1.005 43 0c4.285.19 7.285-1.64 9-5.5a43.2 43.2 0 0 1 .5 16 18.8 18.8 0 0 0-4.5-5.5 753 753 0 0 0-55 0 24.9 24.9 0 0 0-5 6.5 81.2 81.2 0 0 1-.5-22c13.5-10.83 27-21.67 40.5-32.5q-16.5-1.005-33 0c-3.734.73-6.234 2.9-7.5 6.5-.499-5.66-.666-11.32-.5-17" />
   <path style="opacity:1" fill="#df3a1b"
      d="M1125.5 1412.5h27c-.41 16.6-8.41 22.44-24 17.5-6.3-5.33-7.3-11.16-3-17.5" />
   <path style="opacity:1" fill="#df391b"
      d="M1155.5 1413.5h27c-.26 14.79-7.26 19.62-21 14.5-4.24-3.85-6.24-8.68-6-14.5" />
   <path style="opacity:1" fill="#3d1b3c"
      d="M629.5 1420.5c1.844.7 2.344 2.04 1.5 4-1.333 1.33-2.667 2.67-4 4-.612-3.11.221-5.78 2.5-8" />
   <path style="opacity:1" fill="#3c1a3d"
      d="M891.5 1426.5c3.789 1.23 5.289 3.9 4.5 8-2.304-2.28-3.804-4.95-4.5-8" />
   <path style="opacity:1" fill="#321752"
      d="M602.5 1426.5c.739-.13 1.406.04 2 .5-3.168 3.17-4.502 7.01-4 11.5.485 5.59 1.652 10.92 3.5 16-14.575-8.68-15.075-18.01-1.5-28" />
   <path style="opacity:1" fill="#321652"
      d="M920.5 1428.5c15.569 8.76 15.902 18.09 1 28-.333-.17-.667-.33-1-.5 5.165-9.33 5.165-18.5 0-27.5" />
   <path style="opacity:1" fill="#826333"
      d="M669.5 1449.5c1.765-.96 3.765-1.29 6-1q.442 3.36-1 6v-5z" />
   <path style="opacity:1" fill="#fed200"
      d="M1118.5 1454.5c2.18 2.45 4.52 4.95 7 7.5 19.7 9.52 39.36 19.02 59 28.5-3.3 2.66-6.97 4.82-11 6.5q-24.12 10.215-48 21a25.5 25.5 0 0 0-6.5 5.5c-.67-9.33-.67-18.67 0-28 1.27 1.4 1.77 3.07 1.5 5 5.96-.15 11.46-1.82 16.5-5q1.005-12 0-24c-4.57-2.42-9.41-3.58-14.5-3.5-1.36 2.4-2.52 4.9-3.5 7.5-.5-6.99-.67-13.99-.5-21" />
   <path style="opacity:1" fill="#2d1453"
      d="M585.5 1457.5c.739-.13 1.406.04 2 .5-5.185 8.55-5.185 17.21 0 26q-15.822-4.395-9.5-19.5a72 72 0 0 1 7.5-7" />
   <path style="opacity:1" fill="#2f1552"
      d="M937.5 1459.5c9.65 3.64 13.15 10.31 10.5 20a28.6 28.6 0 0 1-8.5 7c-.333-.33-.667-.67-1-1 4.272-9.03 3.939-17.69-1-26" />
   <path style="opacity:1" fill="#351851"
      d="M619.5 1460.5c.739-.13 1.406.04 2 .5q-5.79 4.575-6 12c1.189 5.6 2.522 10.77 4 15.5-15.896-9.23-15.896-18.56 0-28" />
   <path style="opacity:1" fill="#301552"
      d="M904.5 1462.5c16.37 8.45 17.036 17.78 2 28-.333-.33-.667-.67-1-1q8.477-14.04-1-27" />
   <path style="opacity:1" fill="#4a3047"
      d="M739.5 1467.5c.709-.9 1.709-1.24 3-1 .329 12.51-.005 24.84-1 37q.969-18.57-2-36" />
   <path style="opacity:1" fill="#e03d1b"
      d="M1141.5 1473.5c7.45 2.89 14.45 6.56 21 11a79 79 0 0 1-22 9c-.11-6.7.22-13.36 1-20" />
   <path style="opacity:1" fill="#fed300"
      d="M325.5 1496.5q-1.481 7.215-1 15c9.515.33 18.848-.01 28-1q.31-6.135-4-10.5c-4.036-1.67-8.036-3.34-12-5q17.5-1.005 35 0c-5.874 1.18-10.707 4.02-14.5 8.5a32.5 32.5 0 0 0-.5 8c6.009.17 12.009 0 18-.5 3.403-.1 6.57-.93 9.5-2.5 3.614-15.61-1.886-26.44-16.5-32.5q9.879 1.23 20 1.5c.333 17.68 0 35.35-1 53-1.609-2.44-3.943-3.61-7-3.5a699 699 0 0 0-53 0q-3.591 2.925-4.5 7.5-.75-27-.5-54c6.342-.17 12.675 0 19 .5-5.395 1.45-9.895 4.28-13.5 8.5-1.202 2.18-1.702 4.51-1.5 7" />
   <path style="opacity:1" fill="#301552"
      d="M602.5 1492.5c.876-.13 1.543.2 2 1-3.025 3.05-4.692 6.72-5 11 .881 5.51 2.048 10.84 3.5 16-5.966-2.45-9.466-6.79-10.5-13q.023-3.195 1.5-6 3.543-5.295 8.5-9m319 3q23.084 12.795 1 27c-.333-.17-.667-.33-1-.5 5.102-8.97 5.102-17.8 0-26.5" />
   <path style="opacity:1" fill="#f4a20a"
      d="M325.5 1496.5v14h27c-9.152.99-18.485 1.33-28 1q-.481-7.785 1-15" />
   <path style="opacity:1" fill="#fed300"
      d="M1127.5 1528.5c7.83-1.01 11 2.33 9.5 10q-6.585 5.82-13.5 0c-4.13 3.33-4.8 7.17-2 11.5a452 452 0 0 0 59 1 15.1 15.1 0 0 0 3-5.5c1.17 9.98 1.33 19.98.5 30-.96-2.56-2.46-4.73-4.5-6.5-15.67-.69-31.33-1.36-47-2-8.71-1.05-13.88-5.88-15.5-14.5q-3.21-16.065 10.5-24m-806 16c1.533 1.85 3.2 3.69 5 5.5q27.5 1.005 55 0 4.098-.6 5.5-4.5c.667 8.33.667 16.67 0 25a11.5 11.5 0 0 0-4.5-3.5 780 780 0 0 0-56 0c-2.394 1.45-3.894 3.61-4.5 6.5-.5-9.66-.666-19.33-.5-29" />
   <path style="opacity:1" fill="#c5a217"
      d="M741.5 1566.5c.329-13.84-.004-27.51-1-41q-.059-1.89 1.5-3c.828 14.84.661 29.51-.5 44" />
   <path style="opacity:1" fill="#fed200"
      d="M1117.5 1579.5c2.14 2.97 4.81 5.47 8 7.5 19.36 9.35 38.7 18.68 58 28a845 845 0 0 1-61 28 39 39 0 0 0-5 5.5 98.7 98.7 0 0 1 0-28c.64 2.47 2.14 4.14 4.5 5 4.62-1.37 9.12-3.04 13.5-5 1-8.31 1.33-16.64 1-25q-5.82-2.1-12-3c-1.33.33-2.67.67-4 1-.74 2.04-1.57 4.04-2.5 6-.5-6.66-.67-13.33-.5-20" />
   <path style="opacity:1" fill="#fed400"
      d="M334.5 1581.5c10.675-1.41 17.841 2.92 21.5 13a82 82 0 0 1 1.5 18c8.673.17 17.34 0 26-.5a23.5 23.5 0 0 0 3-3.5q2 12 0 24-1.937-3.69-6-4.5c-18.378-.93-36.711-.6-55 1a20.9 20.9 0 0 0-3.5 6.5 361 361 0 0 1 0-38c1.57-7.53 5.737-12.86 12.5-16" />
   <path style="opacity:1" fill="#df3b1b"
      d="M333.5 1597.5c5.572-.51 10.905.32 16 2.5 3.523 3.4 5.189 7.56 5 12.5h-30q-.428-10.665 9-15m806 1c7.71 2.69 15.04 6.19 22 10.5-6.96 3.26-13.96 6.43-21 9.5-1-6.63-1.33-13.3-1-20" />
   <path style="opacity:1" fill="#fad304"
      d="M928.5 1724.5c-3.542.31-6.875-.02-10-1 1.294-2.41 2.961-4.57 5-6.5 6.167-4.17 12.333-8.33 18.5-12.5 2.428-6.06 1.761-11.73-2-17a96.7 96.7 0 0 0-18.5-14.5c-7.261-6.79-9.428-14.96-6.5-24.5 3.053-6.94 7.219-13.11 12.5-18.5 8.924-4.12 18.258-5.79 28-5q1.617 1.005 2 3c-5.583 32.27-5.25 64.44 1 96.5z" />
   <path style="opacity:1" fill="#fad305"
      d="M571.5 1728.5q-4.946-.585-9-3c4.968-31.63 4.968-63.3 0-95q41.19-5.04 41.5 36a23 23 0 0 1-2 5 558 558 0 0 0-24 21c-4.387 5.61-4.554 11.28-.5 17q14.594 6.555 24 19.5c-9.997.17-19.997 0-30-.5" />
   <path style="opacity:1" fill="#99782a"
      d="M918.5 1723.5c3.125.98 6.458 1.31 10 1q-5.278 1.965-11 0c.124-.61.457-.94 1-1" />
   <path style="opacity:1" fill="#806134" d="M562.5 1725.5q4.054 2.415 9 3h-10q-.356-1.935 1-3" />
   <path style="opacity:1" fill="#a8862c"
      d="M791.5 1737.5c-3.462.98-7.129 1.31-11 1 .284 1.91-.049 3.58-1 5v-6z" />
   <path style="opacity:1" fill="#fed500"
      d="M331.5 1789.5c7.979 7.65 15.979 15.31 24 23a766 766 0 0 0 23.5-23c9 7.67 17.333 16 25 25-6.133 8.31-13.299 15.98-21.5 23 8.333 8.67 16.667 17.33 25 26a276 276 0 0 1-24.5 24 454 454 0 0 0-26.5-23l-25 24a800 800 0 0 1-24-23.5 966 966 0 0 0 26-26.5c-8-8.67-16.333-17-25-25q11.532-12.03 23-24m765 7a262.5 262.5 0 0 1 24.5 23c7.68-7.85 15.51-15.51 23.5-23 8.82 8.32 17.49 16.82 26 25.5a707 707 0 0 0-22 22.5c8.15 8.65 16.49 17.15 25 25.5-7.7 8.03-15.7 15.7-24 23q-1.5 1.005-3 0c-8.17-7.5-16.33-15-24.5-22.5l-25 25-23-23c-.67-.67-.67-1.33 0-2 8.35-8.18 16.51-16.51 24.5-25q-12.3-12.54-24-25.5c7.16-7.99 14.49-15.83 22-23.5" />
</svg>